<?xml version="1.0" encoding="UTF-8"?>
<svg id="_레이어_1" data-name="레이어 1" xmlns="http://www.w3.org/2000/svg" viewBox="0 0 430 450">
  <defs>
    <style>
      .cls-1 {
        stroke: #231815;
        stroke-linejoin: round;
        stroke-width: 1.15px;
      }
    </style>
  </defs>
  <path class="cls-1" d="M195.32,197.16h0c-7.25-17.17-18.67-33.77-18.67-33.77-1.28,10.57-2.87,17.45-4.45,21.92-3.5,9.91-6.97,7.96-6.97,7.96-1.49-.48-2.16-1.64-2.37-3.03-.54-3.55,1.97-8.72,1.97-8.72-9.84,14.6-8.46,23.56-8.46,23.56,0,11.2,9.08,20.27,20.27,20.27s20.27-9.08,20.27-20.27c0-2.81-.57-5.48-1.6-7.91Z"/>
  <path class="cls-1" d="M273.4,197.16h0c-7.25-17.17-18.67-33.77-18.67-33.77-1.28,10.57-2.87,17.45-4.45,21.92-3.5,9.91-6.97,7.96-6.97,7.96-1.49-.48-2.16-1.64-2.37-3.03-.54-3.55,1.97-8.72,1.97-8.72-9.84,14.6-8.46,23.56-8.46,23.56,0,11.2,9.08,20.27,20.27,20.27s20.27-9.08,20.27-20.27c0-2.81-.57-5.48-1.6-7.91Z"/>
</svg>