<?xml version="1.0" encoding="UTF-8"?>
<svg id="_레이어_1" data-name="레이어 1" xmlns="http://www.w3.org/2000/svg" viewBox="0 0 430 450">
  <defs>
    <style>
      .cls-1 {
        fill: #231815;
      }

      .cls-1, .cls-2 {
        stroke: #231815;
        stroke-linejoin: round;
        stroke-width: 1.15px;
      }

      .cls-2 {
        fill: #f1f1f1;
      }
    </style>
  </defs>
  <circle class="cls-2" cx="177.19" cy="197.72" r="19.88"/>
  <circle class="cls-2" cx="253.7" cy="197.72" r="19.88"/>
  <path class="cls-1" d="M183.28,188.09c-5.78-.06-6.17,9.03-6.17,9.03,0,0-.38-9.09-6.17-9.03,0,0-5.59,.21-5.29,7.94,0,0,.18,6.96,11.46,13.2,11.29-6.24,11.46-13.2,11.46-13.2,.29-7.73-5.29-7.94-5.29-7.94Z"/>
  <path class="cls-1" d="M259.86,188.17c-5.78-.06-6.17,9.03-6.17,9.03,0,0-.38-9.09-6.17-9.03,0,0-5.59,.21-5.29,7.94,0,0,.18,6.96,11.46,13.2,11.29-6.24,11.46-13.2,11.46-13.2,.29-7.73-5.29-7.94-5.29-7.94Z"/>
</svg>