<svg id="svg" version="1.1" xmlns="http://www.w3.org/2000/svg" xmlns:xlink="http://www.w3.org/1999/xlink" width="400" height="400" viewBox="0, 0, 400,400"><g id="svgg"><path id="path0" d="M184.400 80.389 C 183.630 80.544,185.070 80.586,187.600 80.481 C 190.130 80.377,192.275 80.225,192.367 80.145 C 192.662 79.888,185.848 80.096,184.400 80.389 M204.000 84.511 C 204.000 84.587,204.585 85.078,205.300 85.601 C 206.104 86.190,206.384 86.287,206.033 85.855 C 205.500 85.199,204.000 84.207,204.000 84.511 M170.385 86.429 L 169.000 87.658 170.500 86.581 C 171.826 85.630,172.257 85.200,171.885 85.200 C 171.822 85.200,171.147 85.753,170.385 86.429 M166.981 89.300 L 165.400 91.000 167.100 89.419 C 168.681 87.948,168.984 87.600,168.681 87.600 C 168.616 87.600,167.851 88.365,166.981 89.300 M210.175 90.532 C 210.791 91.339,211.376 92.000,211.475 92.000 C 211.753 92.000,210.021 89.660,209.509 89.344 C 209.259 89.189,209.559 89.724,210.175 90.532 M101.500 91.082 C 101.995 91.178,102.805 91.178,103.300 91.082 C 103.795 90.987,103.390 90.909,102.400 90.909 C 101.410 90.909,101.005 90.987,101.500 91.082 M96.600 91.619 C 96.042 91.871,96.285 91.907,97.400 91.738 C 98.280 91.604,99.075 91.428,99.167 91.347 C 99.510 91.044,97.368 91.271,96.600 91.619 M93.700 92.412 C 92.361 92.951,92.611 93.224,94.000 92.740 C 94.660 92.510,95.200 92.249,95.200 92.161 C 95.200 91.924,94.713 92.005,93.700 92.412 M90.300 94.027 C 89.475 94.463,88.800 94.908,88.800 95.018 C 88.800 95.127,89.520 94.849,90.400 94.400 C 91.280 93.951,92.000 93.497,92.000 93.392 C 92.000 93.130,91.997 93.131,90.300 94.027 M120.800 97.725 C 120.800 97.794,121.385 98.379,122.100 99.025 L 123.400 100.200 122.225 98.900 C 121.130 97.688,120.800 97.416,120.800 97.725 M225.905 102.683 C 226.402 102.779,227.122 102.775,227.505 102.675 C 227.887 102.575,227.480 102.496,226.600 102.501 C 225.720 102.505,225.407 102.587,225.905 102.683 M221.100 103.829 C 219.549 104.670,219.725 104.961,221.300 104.159 C 222.808 103.393,223.075 103.194,222.567 103.216 C 222.365 103.225,221.705 103.501,221.100 103.829 M141.300 104.676 C 141.685 104.776,142.315 104.776,142.700 104.676 C 143.085 104.575,142.770 104.493,142.000 104.493 C 141.230 104.493,140.915 104.575,141.300 104.676 M138.300 105.429 C 137.695 105.757,137.200 106.114,137.200 106.223 C 137.200 106.332,137.695 106.171,138.300 105.865 C 138.905 105.560,139.670 105.209,140.000 105.086 C 140.533 104.888,140.533 104.861,140.000 104.848 C 139.670 104.839,138.905 105.101,138.300 105.429 M235.194 107.003 C 236.787 108.921,236.921 109.045,236.486 108.196 C 236.259 107.753,235.652 107.034,235.137 106.598 C 234.233 105.834,234.235 105.848,235.194 107.003 M135.322 107.429 L 134.200 108.458 135.500 107.554 C 136.215 107.057,136.800 106.593,136.800 106.525 C 136.800 106.209,136.358 106.480,135.322 107.429 M215.232 108.749 C 215.205 109.548,215.295 109.619,215.800 109.200 C 216.455 108.656,216.621 108.216,216.034 108.579 C 215.833 108.703,215.577 108.579,215.466 108.302 C 215.354 108.026,215.249 108.227,215.232 108.749 M132.415 109.784 C 131.677 110.546,130.894 111.058,130.675 110.923 C 130.440 110.778,130.403 110.881,130.584 111.174 C 130.838 111.584,134.000 109.126,134.000 108.519 C 134.000 108.226,133.669 108.491,132.415 109.784 M77.049 110.215 C 76.912 110.573,76.815 111.166,76.834 111.533 C 76.853 111.900,77.027 111.669,77.221 111.020 C 77.598 109.758,77.465 109.133,77.049 110.215 M154.000 111.400 C 154.746 112.170,155.447 112.800,155.557 112.800 C 155.667 112.800,155.146 112.170,154.400 111.400 C 153.654 110.630,152.953 110.000,152.843 110.000 C 152.733 110.000,153.254 110.630,154.000 111.400 M101.057 111.808 C 91.872 114.132,84.714 123.450,83.242 135.000 C 83.008 136.840,82.908 136.990,81.994 136.878 C 76.961 136.262,74.686 136.879,73.110 139.290 C 71.648 141.526,71.781 141.853,74.356 142.359 C 78.590 143.192,82.111 145.504,85.081 149.400 C 86.980 151.891,90.000 157.670,90.000 158.812 C 90.000 160.126,90.524 159.904,92.542 157.737 C 97.385 152.533,101.938 155.446,101.531 163.489 C 101.451 165.090,101.484 166.400,101.605 166.400 C 101.727 166.400,103.028 165.762,104.497 164.982 C 116.325 158.701,125.052 166.403,122.629 180.983 C 122.302 182.954,122.071 184.592,122.117 184.623 C 133.421 192.301,150.686 187.016,151.873 175.515 L 152.092 173.394 154.785 172.291 C 156.506 171.585,158.353 170.395,159.902 168.994 C 162.772 166.396,162.661 166.413,164.834 168.229 C 174.679 176.454,190.386 171.012,192.627 158.600 C 192.993 156.568,193.256 156.414,196.357 156.406 C 208.328 156.377,217.839 144.782,213.460 135.555 C 209.313 126.820,199.476 124.938,189.645 130.999 C 187.808 132.132,186.715 132.598,186.625 132.287 C 186.549 132.019,186.275 130.770,186.017 129.512 C 183.669 118.055,172.539 113.861,165.142 121.646 C 162.978 123.924,160.423 128.885,159.140 133.300 C 158.083 136.939,158.127 136.916,156.660 134.594 C 150.060 124.147,138.247 122.719,128.994 131.248 C 127.998 132.166,127.125 132.846,127.054 132.758 C 126.983 132.671,126.614 131.610,126.234 130.400 C 121.909 116.625,111.730 109.108,101.057 111.808 M238.070 114.500 C 237.992 116.609,238.305 116.838,239.438 115.500 L 240.200 114.600 239.325 115.339 L 238.450 116.079 238.295 114.339 L 238.140 112.600 238.070 114.500 M363.859 114.411 C 361.438 115.137,357.600 118.998,357.600 120.708 C 357.600 121.738,356.839 121.132,356.029 119.459 C 354.918 117.165,353.176 116.208,350.629 116.496 C 345.031 117.127,343.921 124.731,349.039 127.386 L 350.136 127.955 349.168 128.350 C 348.636 128.567,347.672 128.859,347.027 128.998 C 345.089 129.417,342.800 132.021,342.800 133.806 C 342.800 138.087,351.270 140.220,356.880 137.352 C 358.426 136.562,358.552 136.603,360.866 138.658 C 369.074 145.948,380.734 141.345,377.859 131.949 L 377.538 130.898 379.640 131.280 C 384.217 132.112,386.800 130.351,386.800 126.400 C 386.800 121.185,381.345 118.561,375.500 120.965 L 373.200 121.911 373.200 120.535 C 373.200 116.309,368.283 113.085,363.859 114.411 M74.800 117.138 C 74.800 117.324,75.160 117.802,75.600 118.200 C 76.040 118.598,76.400 118.806,76.400 118.662 C 76.400 118.518,76.040 118.040,75.600 117.600 C 75.160 117.160,74.800 116.952,74.800 117.138 M47.314 129.800 C 47.317 130.900,47.395 131.303,47.487 130.695 C 47.579 130.086,47.577 129.186,47.482 128.695 C 47.387 128.203,47.311 128.700,47.314 129.800 M46.072 154.467 C 46.028 155.846,45.804 156.812,45.500 156.935 C 45.108 157.093,45.111 157.144,45.513 157.168 C 46.250 157.214,46.469 156.370,46.296 154.149 L 46.144 152.200 46.072 154.467 M270.696 154.150 C 268.775 155.331,268.238 155.889,269.800 155.081 C 271.054 154.433,272.745 153.226,272.400 153.225 C 272.290 153.225,271.523 153.641,270.696 154.150 M238.114 155.400 C 238.117 156.500,238.195 156.903,238.287 156.295 C 238.379 155.686,238.377 154.786,238.282 154.295 C 238.187 153.803,238.111 154.300,238.114 155.400 M29.511 154.293 C 30.451 154.378,31.891 154.377,32.711 154.291 C 33.530 154.205,32.760 154.136,31.000 154.137 C 29.240 154.139,28.570 154.209,29.511 154.293 M36.000 154.800 C 36.550 154.976,37.360 155.120,37.800 155.120 C 38.433 155.120,38.392 155.054,37.600 154.800 C 37.050 154.624,36.240 154.480,35.800 154.480 C 35.167 154.480,35.208 154.546,36.000 154.800 M41.400 156.000 C 41.840 156.189,42.470 156.344,42.800 156.344 C 43.178 156.344,43.104 156.217,42.600 156.000 C 42.160 155.811,41.530 155.656,41.200 155.656 C 40.822 155.656,40.896 155.783,41.400 156.000 M20.276 157.700 C 19.030 158.933,19.025 158.949,20.181 158.003 C 20.852 157.455,21.571 156.870,21.780 156.703 C 21.989 156.536,22.031 156.400,21.874 156.400 C 21.717 156.400,20.998 156.985,20.276 157.700 M252.400 157.187 C 253.391 157.517,256.287 157.735,255.967 157.454 C 255.875 157.374,254.810 157.206,253.600 157.081 C 252.180 156.934,251.754 156.971,252.400 157.187 M260.705 157.483 C 261.202 157.579,261.922 157.575,262.305 157.475 C 262.687 157.375,262.280 157.296,261.400 157.301 C 260.520 157.305,260.207 157.387,260.705 157.483 M16.101 167.800 C 16.105 168.680,16.187 168.993,16.283 168.495 C 16.379 167.998,16.375 167.278,16.275 166.895 C 16.175 166.513,16.096 166.920,16.101 167.800 M200.000 168.600 C 200.746 169.370,201.447 170.000,201.557 170.000 C 201.667 170.000,201.146 169.370,200.400 168.600 C 199.654 167.830,198.953 167.200,198.843 167.200 C 198.733 167.200,199.254 167.830,200.000 168.600 M322.597 171.201 C 324.493 173.418,324.520 173.442,324.086 172.600 C 323.859 172.160,323.162 171.351,322.537 170.801 L 321.400 169.803 322.597 171.201 M305.998 174.238 C 306.988 174.803,308.023 175.453,308.298 175.682 C 308.574 175.911,308.800 175.982,308.800 175.840 C 308.800 175.496,305.158 173.199,304.622 173.205 C 304.390 173.207,305.009 173.672,305.998 174.238 M211.200 174.000 C 211.750 174.176,212.560 174.320,213.000 174.320 C 213.633 174.320,213.592 174.254,212.800 174.000 C 212.250 173.824,211.440 173.680,211.000 173.680 C 210.367 173.680,210.408 173.746,211.200 174.000 M297.000 174.966 C 296.340 175.495,295.890 175.999,296.000 176.085 C 296.110 176.171,296.737 175.737,297.394 175.120 C 298.857 173.748,298.630 173.659,297.000 174.966 M216.291 174.689 C 217.001 174.777,218.261 174.779,219.091 174.692 C 219.921 174.605,219.340 174.533,217.800 174.531 C 216.260 174.529,215.581 174.600,216.291 174.689 M337.556 175.917 C 338.082 176.341,338.862 177.118,339.291 177.644 C 339.719 178.170,339.936 178.330,339.774 178.000 C 339.292 177.021,338.264 175.953,337.404 175.536 C 336.794 175.240,336.830 175.332,337.556 175.917 M325.254 176.500 C 325.187 177.855,325.985 177.944,327.038 176.700 C 327.799 175.801,327.799 175.801,326.969 176.500 C 325.888 177.410,325.691 177.384,325.482 176.300 C 325.334 175.528,325.301 175.557,325.254 176.500 M339.380 182.432 C 339.233 182.670,338.547 183.210,337.856 183.631 C 337.165 184.052,336.822 184.398,337.094 184.399 C 337.606 184.400,340.413 182.032,339.924 182.012 C 339.772 182.005,339.527 182.195,339.380 182.432 M40.878 183.071 C 41.302 183.183,41.475 183.503,41.340 183.925 C 41.162 184.483,41.196 184.499,41.536 184.019 C 42.049 183.294,41.763 182.786,40.876 182.846 C 40.243 182.890,40.243 182.904,40.878 183.071 M81.941 184.126 C 76.439 186.443,74.247 189.948,74.311 196.328 C 74.334 198.562,74.539 200.285,74.823 200.628 C 75.196 201.077,75.180 201.201,74.749 201.206 C 74.397 201.210,74.352 201.317,74.624 201.506 C 75.003 201.769,76.800 206.603,76.800 207.359 C 76.800 207.526,76.045 207.016,75.121 206.225 C 73.041 204.445,70.964 203.857,67.597 204.095 C 61.564 204.522,58.464 207.994,53.668 219.700 C 53.141 220.986,52.400 221.156,52.400 219.992 C 52.400 215.767,45.502 208.640,39.812 206.986 C 27.315 203.353,17.064 211.955,14.173 228.500 C 13.850 230.346,13.639 230.360,12.502 228.604 C 10.122 224.929,4.265 224.334,1.310 227.468 L 0.000 228.857 0.000 243.428 C 0.000 251.443,0.135 257.997,0.300 257.994 C 1.090 257.978,1.572 257.212,2.124 255.100 C 3.999 247.918,9.642 243.954,16.253 245.176 C 17.515 245.409,18.694 245.600,18.873 245.600 C 19.053 245.600,19.202 244.205,19.205 242.500 C 19.227 228.164,30.158 224.630,42.474 234.977 L 45.549 237.560 46.176 235.673 C 50.061 223.976,64.690 220.759,73.555 229.651 C 76.538 232.644,76.600 232.975,73.927 231.652 C 65.203 227.334,58.334 233.566,58.922 245.263 L 59.161 250.000 57.906 249.351 C 51.314 245.943,37.693 249.759,33.408 256.215 C 25.494 268.138,31.922 280.189,46.200 280.197 C 56.941 280.203,65.184 273.451,69.635 261.000 C 70.326 259.067,70.394 259.007,71.675 259.200 C 81.826 260.732,91.303 257.912,98.100 251.338 L 99.999 249.500 100.625 251.050 C 101.984 254.419,102.525 255.310,104.199 256.937 C 114.513 266.961,131.656 255.403,125.872 242.324 C 124.658 239.579,124.660 239.576,127.511 240.257 C 146.573 244.808,155.694 242.905,155.653 234.383 C 155.617 226.807,146.940 221.937,133.301 221.838 C 127.540 221.797,127.207 221.633,129.373 219.904 C 141.647 210.111,138.914 189.455,125.065 187.344 C 124.149 187.205,123.220 186.953,123.000 186.785 C 122.386 186.315,116.025 188.067,114.000 189.263 C 111.509 190.734,107.812 194.510,106.785 196.632 C 105.708 198.856,105.201 198.878,105.196 196.700 C 105.176 187.944,91.034 180.298,81.941 184.126 M31.712 183.895 C 32.764 183.977,34.384 183.976,35.312 183.892 C 36.240 183.808,35.380 183.741,33.400 183.742 C 31.420 183.743,30.660 183.812,31.712 183.895 M338.400 187.000 C 339.146 187.770,339.847 188.400,339.957 188.400 C 340.067 188.400,339.546 187.770,338.800 187.000 C 338.054 186.230,337.353 185.600,337.243 185.600 C 337.133 185.600,337.654 186.230,338.400 187.000 M65.633 189.626 C 65.790 190.961,66.054 192.176,66.219 192.326 C 66.383 192.477,66.404 192.150,66.265 191.600 C 66.125 191.050,66.008 189.835,66.005 188.900 C 66.002 187.965,65.853 187.200,65.673 187.200 C 65.494 187.200,65.476 188.292,65.633 189.626 M298.800 187.972 C 298.800 188.177,298.395 188.430,297.900 188.536 C 297.272 188.669,297.354 188.708,298.169 188.663 C 299.235 188.606,300.241 187.600,299.233 187.600 C 298.995 187.600,298.800 187.767,298.800 187.972 M43.201 190.537 C 43.751 191.162,44.560 191.859,45.000 192.086 C 45.842 192.520,45.818 192.493,43.601 190.597 L 42.203 189.400 43.201 190.537 M292.558 191.766 C 292.438 192.078,292.405 192.843,292.484 193.466 C 292.602 194.391,292.664 194.287,292.825 192.900 C 293.027 191.151,292.938 190.775,292.558 191.766 M46.800 192.787 C 47.791 193.117,50.687 193.335,50.367 193.054 C 50.275 192.974,49.210 192.806,48.000 192.681 C 46.580 192.534,46.154 192.571,46.800 192.787 M339.851 194.679 C 339.440 195.229,338.540 195.925,337.851 196.224 C 337.096 196.553,336.880 196.775,337.306 196.784 C 338.040 196.801,341.147 194.209,340.799 193.871 C 340.689 193.765,340.263 194.129,339.851 194.679 M332.406 195.700 C 332.411 196.428,332.486 196.485,332.800 196.000 C 333.301 195.224,333.301 194.800,332.800 194.800 C 332.580 194.800,332.403 195.205,332.406 195.700 M293.344 195.909 C 293.660 196.421,296.000 198.153,296.000 197.875 C 296.000 197.776,295.339 197.191,294.532 196.575 C 293.724 195.959,293.189 195.659,293.344 195.909 M69.400 197.966 C 70.178 198.861,72.400 200.598,72.400 200.312 C 72.400 200.234,71.545 199.467,70.500 198.608 C 69.455 197.749,68.960 197.460,69.400 197.966 M333.314 200.200 C 333.317 201.300,333.395 201.703,333.487 201.095 C 333.579 200.486,333.577 199.586,333.482 199.095 C 333.387 198.603,333.311 199.100,333.314 200.200 M313.517 203.800 C 313.745 204.240,314.532 205.140,315.266 205.799 L 316.600 206.998 315.201 205.399 C 314.432 204.520,313.645 203.620,313.452 203.400 C 313.260 203.180,313.289 203.360,313.517 203.800 M321.700 208.687 C 322.305 208.778,323.295 208.778,323.900 208.687 C 324.505 208.595,324.010 208.520,322.800 208.520 C 321.590 208.520,321.095 208.595,321.700 208.687 M336.307 280.690 C 337.026 280.779,338.106 280.777,338.707 280.686 C 339.308 280.595,338.720 280.522,337.400 280.524 C 336.080 280.526,335.588 280.601,336.307 280.690 M161.107 285.090 C 161.826 285.179,162.906 285.177,163.507 285.086 C 164.108 284.995,163.520 284.922,162.200 284.924 C 160.880 284.926,160.388 285.001,161.107 285.090 M153.200 287.000 C 152.650 287.314,152.380 287.572,152.600 287.572 C 152.820 287.572,153.450 287.314,154.000 287.000 C 154.550 286.686,154.820 286.428,154.600 286.428 C 154.380 286.428,153.750 286.686,153.200 287.000 M355.200 288.200 C 355.946 288.970,356.647 289.600,356.757 289.600 C 356.867 289.600,356.346 288.970,355.600 288.200 C 354.854 287.430,354.153 286.800,354.043 286.800 C 353.933 286.800,354.454 287.430,355.200 288.200 M175.600 290.125 C 175.600 290.194,176.185 290.779,176.900 291.425 L 178.200 292.600 177.025 291.300 C 175.930 290.088,175.600 289.816,175.600 290.125 M357.775 291.332 C 358.391 292.139,358.976 292.800,359.075 292.800 C 359.353 292.800,357.621 290.460,357.109 290.144 C 356.859 289.989,357.159 290.524,357.775 291.332 M226.305 290.683 C 226.802 290.779,227.522 290.775,227.905 290.675 C 228.287 290.575,227.880 290.496,227.000 290.501 C 226.120 290.505,225.807 290.587,226.305 290.683 M210.585 297.700 L 208.600 299.800 210.700 297.815 C 212.651 295.971,212.983 295.600,212.685 295.600 C 212.622 295.600,211.677 296.545,210.585 297.700 M243.900 297.199 C 244.676 298.069,244.491 298.477,243.549 297.973 C 243.081 297.722,241.326 297.426,239.649 297.314 C 224.241 296.287,212.287 312.026,216.192 328.200 C 216.511 329.520,216.778 330.758,216.786 330.951 C 216.794 331.144,215.977 330.543,214.970 329.615 C 208.659 323.798,196.918 323.985,190.538 330.003 C 187.681 332.697,183.452 339.797,180.890 346.200 C 178.061 353.269,178.083 353.035,180.411 351.192 C 193.529 340.802,211.108 355.089,203.675 370.100 C 203.049 371.365,202.613 372.400,202.706 372.400 C 202.800 372.400,204.393 371.391,206.246 370.158 C 228.940 355.058,248.189 377.806,226.308 393.867 C 224.229 395.394,223.991 396.037,225.863 395.073 C 236.724 389.479,248.962 391.294,252.483 399.021 L 252.928 400.000 290.264 400.000 L 327.600 400.000 327.600 399.073 C 327.600 386.860,312.513 379.981,298.918 385.995 C 296.146 387.221,296.130 387.017,298.775 384.131 C 304.765 377.593,306.263 371.162,303.230 365.001 C 298.963 356.333,288.952 357.088,277.430 366.948 C 275.833 368.315,275.142 368.719,275.312 368.188 C 275.450 367.755,275.948 366.320,276.420 365.001 C 280.767 352.830,272.014 340.427,259.063 340.405 L 256.326 340.400 258.105 338.421 C 263.038 332.935,260.716 323.200,254.475 323.200 C 252.682 323.200,252.516 323.032,253.300 322.012 C 253.575 321.654,253.414 321.763,252.941 322.255 C 251.846 323.395,251.606 323.136,252.037 321.280 C 253.700 314.124,249.448 301.212,244.096 297.165 C 243.504 296.718,243.475 296.723,243.900 297.199 M362.509 303.600 C 362.509 304.590,362.587 304.995,362.682 304.500 C 362.778 304.005,362.778 303.195,362.682 302.700 C 362.587 302.205,362.509 302.610,362.509 303.600 M143.344 306.400 C 143.344 308.490,143.412 309.345,143.494 308.300 C 143.576 307.255,143.576 305.545,143.494 304.500 C 143.412 303.455,143.344 304.310,143.344 306.400 M321.412 305.400 C 322.733 307.186,323.600 308.010,323.600 307.481 C 323.600 307.378,322.775 306.418,321.766 305.347 L 319.932 303.400 321.412 305.400 M183.672 307.476 C 183.595 309.693,183.997 310.367,184.811 309.386 C 185.228 308.885,185.205 308.823,184.680 309.025 C 184.167 309.222,184.018 308.900,183.895 307.334 L 183.744 305.400 183.672 307.476 M287.491 306.289 C 288.201 306.377,289.461 306.379,290.291 306.292 C 291.121 306.205,290.540 306.133,289.000 306.131 C 287.460 306.129,286.781 306.200,287.491 306.289 M362.501 309.000 C 362.505 309.880,362.587 310.193,362.683 309.695 C 362.779 309.198,362.775 308.478,362.675 308.095 C 362.575 307.713,362.496 308.120,362.501 309.000 M305.850 309.250 C 305.713 309.938,305.600 311.478,305.600 312.674 C 305.600 314.296,305.473 314.776,305.100 314.565 C 304.703 314.341,304.702 314.392,305.093 314.815 C 305.807 315.584,305.872 315.368,306.103 311.500 C 306.324 307.794,306.258 307.210,305.850 309.250 M302.425 311.431 C 303.181 312.328,303.881 312.997,303.980 312.917 C 304.079 312.838,303.460 312.104,302.605 311.287 L 301.050 309.800 302.425 311.431 M143.693 312.000 C 143.693 312.770,143.775 313.085,143.876 312.700 C 143.976 312.315,143.976 311.685,143.876 311.300 C 143.775 310.915,143.693 311.230,143.693 312.000 M274.181 312.500 L 272.600 314.200 274.300 312.619 C 275.881 311.148,276.184 310.800,275.881 310.800 C 275.816 310.800,275.051 311.565,274.181 312.500 M271.923 315.100 C 271.218 315.921,270.690 316.800,270.901 316.800 C 270.983 316.800,271.449 316.260,271.937 315.600 C 272.901 314.296,272.892 313.972,271.923 315.100 M144.468 316.800 C 144.488 317.839,145.118 319.546,145.132 318.600 C 145.138 318.160,144.989 317.440,144.800 317.000 C 144.589 316.510,144.461 316.432,144.468 316.800 M137.500 319.482 C 137.995 319.578,138.805 319.578,139.300 319.482 C 139.795 319.387,139.390 319.309,138.400 319.309 C 137.410 319.309,137.005 319.387,137.500 319.482 M262.924 320.866 C 263.542 321.381,264.413 322.252,264.859 322.801 C 265.305 323.351,265.537 323.530,265.375 323.200 C 264.909 322.249,263.473 320.763,262.600 320.328 C 262.144 320.100,262.283 320.331,262.924 320.866 M360.300 320.693 C 361.235 320.777,362.765 320.777,363.700 320.693 C 364.635 320.609,363.870 320.540,362.000 320.540 C 360.130 320.540,359.365 320.609,360.300 320.693 M143.600 320.855 C 143.600 320.963,144.140 321.568,144.800 322.200 L 146.000 323.350 145.968 322.375 C 145.951 321.839,145.842 321.638,145.725 321.929 C 145.568 322.323,145.269 322.229,144.557 321.560 C 144.031 321.065,143.600 320.748,143.600 320.855 M268.067 321.980 C 267.833 322.651,267.727 323.200,267.831 323.200 C 268.101 323.200,268.856 321.122,268.657 320.924 C 268.567 320.833,268.301 321.308,268.067 321.980 M266.970 325.271 C 266.671 326.570,266.658 326.577,266.372 325.600 C 266.136 324.791,266.073 324.753,266.046 325.400 C 265.975 327.091,266.687 327.353,267.193 325.821 C 267.461 325.010,267.589 324.256,267.478 324.145 C 267.367 324.034,267.138 324.541,266.970 325.271 M119.600 324.511 C 119.600 324.587,120.185 325.078,120.900 325.601 C 121.704 326.190,121.984 326.287,121.633 325.855 C 121.100 325.199,119.600 324.207,119.600 324.511 M374.000 324.525 C 374.000 324.594,374.585 325.179,375.300 325.825 L 376.600 327.000 375.425 325.700 C 374.330 324.488,374.000 324.216,374.000 324.525 M124.575 329.332 C 125.191 330.139,125.776 330.800,125.875 330.800 C 126.153 330.800,124.421 328.460,123.909 328.144 C 123.659 327.989,123.959 328.524,124.575 329.332 M106.093 330.800 C 106.093 331.570,106.175 331.885,106.276 331.500 C 106.376 331.115,106.376 330.485,106.276 330.100 C 106.175 329.715,106.093 330.030,106.093 330.800 M127.129 331.000 C 126.871 332.199,126.996 332.738,127.430 332.303 C 127.557 332.177,127.599 331.562,127.524 330.937 L 127.387 329.800 127.129 331.000 M380.229 332.800 C 380.376 333.350,380.664 334.070,380.867 334.400 C 381.125 334.817,381.157 334.695,380.971 334.000 C 380.824 333.450,380.536 332.730,380.333 332.400 C 380.075 331.983,380.043 332.105,380.229 332.800 M106.109 334.000 C 106.109 334.990,106.187 335.395,106.282 334.900 C 106.378 334.405,106.378 333.595,106.282 333.100 C 106.187 332.605,106.109 333.010,106.109 334.000 M83.633 334.921 C 83.725 334.988,84.340 335.358,85.000 335.745 L 86.200 336.447 85.256 335.624 C 84.736 335.171,84.121 334.800,83.889 334.800 C 83.657 334.800,83.542 334.854,83.633 334.921 M72.327 337.900 C 71.764 338.505,70.997 339.540,70.621 340.200 C 69.945 341.389,69.946 341.391,70.670 340.409 C 71.071 339.865,71.914 338.830,72.541 338.109 C 73.925 336.523,73.758 336.360,72.327 337.900 M107.010 339.334 C 107.152 340.057,107.083 340.375,106.821 340.213 C 106.576 340.062,106.506 340.210,106.647 340.579 C 106.778 340.921,107.046 341.200,107.243 341.200 C 107.697 341.200,107.657 340.039,107.166 339.000 C 106.858 338.350,106.829 338.412,107.010 339.334 M89.264 342.476 C 89.183 344.354,89.594 344.600,90.573 343.259 L 91.345 342.200 90.501 342.937 C 89.665 343.666,89.655 343.660,89.492 342.337 L 89.328 341.000 89.264 342.476 M67.933 350.039 C 67.860 351.601,67.935 352.962,68.100 353.063 C 68.265 353.164,68.400 351.887,68.400 350.224 C 68.400 346.405,68.108 346.290,67.933 350.039 M95.200 348.205 C 89.041 350.243,84.504 357.980,85.587 364.600 C 85.998 367.113,86.170 367.048,83.158 365.513 C 72.359 360.009,59.639 369.080,61.081 381.256 L 61.322 383.288 59.401 381.821 C 47.095 372.428,30.125 378.958,25.150 395.000 C 24.741 396.320,24.405 397.985,24.403 398.700 L 24.400 400.000 46.949 400.000 L 69.499 400.000 71.227 398.421 C 75.261 394.733,80.183 393.201,88.380 393.082 C 91.470 393.037,93.998 392.930,93.999 392.845 C 94.000 392.759,93.293 391.922,92.428 390.984 C 86.526 384.581,88.364 377.753,95.900 378.087 C 97.495 378.158,98.800 378.109,98.800 377.978 C 98.800 377.847,98.319 376.404,97.731 374.770 C 93.288 362.433,101.062 351.679,111.781 355.332 C 114.204 356.157,114.079 355.696,111.045 352.602 C 106.738 348.209,100.457 346.466,95.200 348.205 M375.385 352.500 L 373.400 354.600 375.500 352.615 C 376.655 351.523,377.600 350.578,377.600 350.515 C 377.600 350.217,377.229 350.549,375.385 352.500 M23.117 359.128 C 22.741 359.278,23.899 359.405,25.690 359.412 C 27.504 359.418,28.515 359.303,27.973 359.152 C 26.702 358.796,23.983 358.783,23.117 359.128 M48.128 363.200 C 48.128 364.630,48.201 365.215,48.289 364.500 C 48.378 363.785,48.378 362.615,48.289 361.900 C 48.201 361.185,48.128 361.770,48.128 363.200 M35.599 364.700 C 36.122 365.415,36.613 366.000,36.689 366.000 C 36.993 366.000,36.001 364.500,35.345 363.967 C 34.913 363.616,35.010 363.896,35.599 364.700 M43.100 367.482 C 43.595 367.578,44.405 367.578,44.900 367.482 C 45.395 367.387,44.990 367.309,44.000 367.309 C 43.010 367.309,42.605 367.387,43.100 367.482 M47.570 368.900 C 48.599 370.067,49.200 370.301,49.200 369.533 C 49.200 369.277,49.078 369.188,48.930 369.337 C 48.781 369.486,48.196 369.201,47.630 368.704 L 46.600 367.800 47.570 368.900 M16.871 372.800 C 16.876 374.890,17.010 377.050,17.169 377.600 C 17.327 378.150,17.386 376.620,17.299 374.200 C 17.098 368.616,16.861 367.840,16.871 372.800 M39.059 370.037 C 38.509 370.822,38.461 370.828,38.283 370.137 C 38.128 369.537,38.084 369.567,38.046 370.300 C 37.985 371.485,38.549 371.442,39.363 370.200 C 40.154 368.993,39.889 368.852,39.059 370.037 M373.328 374.800 C 373.328 376.230,373.401 376.815,373.489 376.100 C 373.578 375.385,373.578 374.215,373.489 373.500 C 373.401 372.785,373.328 373.370,373.328 374.800 M372.629 379.429 C 372.481 380.015,372.438 380.572,372.532 380.666 C 372.627 380.760,372.824 380.358,372.971 379.771 C 373.119 379.185,373.162 378.628,373.068 378.534 C 372.973 378.440,372.776 378.842,372.629 379.429 M12.500 381.887 C 13.105 381.978,14.095 381.978,14.700 381.887 C 15.305 381.795,14.810 381.720,13.600 381.720 C 12.390 381.720,11.895 381.795,12.500 381.887 M17.200 382.764 C 17.750 383.214,18.380 383.583,18.600 383.585 C 19.028 383.588,18.305 383.034,17.000 382.360 C 16.469 382.085,16.536 382.221,17.200 382.764 M375.500 384.682 C 375.995 384.778,376.805 384.778,377.300 384.682 C 377.795 384.587,377.390 384.509,376.400 384.509 C 375.410 384.509,375.005 384.587,375.500 384.682 M3.701 391.400 C 3.705 392.280,3.787 392.593,3.883 392.095 C 3.979 391.598,3.975 390.878,3.875 390.495 C 3.775 390.113,3.696 390.520,3.701 391.400 M3.540 396.374 C 3.457 397.574,3.559 398.347,3.790 398.270 C 4.128 398.157,4.140 394.818,3.804 394.474 C 3.736 394.404,3.618 395.259,3.540 396.374 M389.720 398.000 C 389.720 399.210,389.795 399.705,389.887 399.100 C 389.978 398.495,389.978 397.505,389.887 396.900 C 389.795 396.295,389.720 396.790,389.720 398.000 " stroke="none" fill="#d4dce4" fill-rule="evenodd"></path><path id="path1" d="M183.800 80.775 C 175.382 82.164,167.540 87.503,162.608 95.200 C 161.135 97.499,160.642 98.454,159.202 101.800 C 158.154 104.233,156.800 109.995,156.800 112.020 C 156.800 113.649,156.208 113.506,153.822 111.300 C 145.269 103.394,140.436 102.947,133.301 109.404 L 130.825 111.644 129.943 109.722 C 124.864 98.660,113.765 91.200,102.385 91.200 C 88.809 91.200,76.400 103.456,76.400 116.864 L 76.400 118.971 74.679 117.148 C 72.509 114.852,70.082 113.434,66.942 112.630 C 52.200 108.853,42.644 125.236,50.294 141.173 L 51.507 143.701 50.165 145.186 C 47.826 147.775,46.400 151.172,46.400 154.154 C 46.400 157.266,46.374 157.288,43.594 156.546 C 25.927 151.827,16.400 155.749,16.400 167.741 C 16.400 178.938,26.117 185.619,38.946 183.244 C 41.756 182.724,42.061 182.856,41.497 184.347 C 40.345 187.400,43.660 192.018,47.406 192.580 C 50.810 193.090,57.056 191.463,62.890 188.545 C 64.370 187.805,65.648 187.200,65.732 187.200 C 65.816 187.200,65.988 188.444,66.116 189.964 C 66.465 194.130,68.171 196.989,71.972 199.779 C 73.949 201.230,75.774 201.774,74.823 200.628 C 72.956 198.378,74.711 189.750,77.631 186.831 C 85.742 178.720,105.171 185.676,105.196 196.700 C 105.201 198.879,105.708 198.856,106.787 196.626 C 108.841 192.383,114.575 188.209,119.765 187.177 C 122.024 186.728,122.373 186.546,122.176 185.925 C 122.049 185.524,122.236 183.365,122.592 181.126 C 124.955 166.266,116.420 158.651,104.497 164.982 C 103.028 165.762,101.727 166.400,101.605 166.400 C 101.484 166.400,101.451 165.090,101.531 163.489 C 101.938 155.446,97.385 152.533,92.542 157.737 C 90.524 159.904,90.000 160.126,90.000 158.812 C 90.000 157.670,86.980 151.891,85.081 149.400 C 82.111 145.504,78.590 143.192,74.356 142.359 C 71.741 141.845,71.611 141.470,73.242 139.153 C 74.884 136.820,77.010 136.268,81.994 136.878 C 82.908 136.990,83.008 136.840,83.242 135.000 C 86.918 106.158,117.592 102.876,126.234 130.400 C 126.614 131.610,126.983 132.671,127.054 132.758 C 127.125 132.846,127.998 132.166,128.994 131.248 C 138.247 122.719,150.060 124.147,156.660 134.594 C 158.127 136.916,158.083 136.939,159.140 133.300 C 160.423 128.885,162.978 123.924,165.142 121.646 C 172.539 113.861,183.669 118.055,186.017 129.512 C 186.275 130.770,186.549 132.019,186.625 132.287 C 186.715 132.598,187.808 132.132,189.645 130.999 C 199.476 124.938,209.313 126.820,213.460 135.555 C 217.856 144.818,208.308 156.400,196.275 156.400 L 193.635 156.400 194.175 157.928 C 196.387 164.200,199.999 169.027,204.000 171.061 C 220.675 179.537,237.641 171.578,238.050 155.088 C 238.132 151.750,238.218 151.695,241.084 153.140 C 264.295 164.844,286.939 150.147,281.745 126.749 C 277.626 108.189,253.954 100.937,240.776 114.199 C 238.074 116.918,238.130 116.924,237.917 113.900 C 237.083 102.086,223.875 99.008,216.035 108.800 L 215.234 109.800 215.465 107.200 C 215.688 104.687,214.804 98.757,213.979 97.229 C 213.792 96.883,213.331 95.880,212.955 95.000 C 208.633 84.879,196.071 78.750,183.800 80.775 M315.200 169.578 C 313.208 170.636,312.036 172.438,311.268 175.625 C 310.495 178.829,310.488 178.834,309.303 177.005 C 304.198 169.123,291.485 175.133,295.154 183.693 C 295.937 185.520,298.019 187.600,299.064 187.600 C 300.330 187.600,299.260 188.611,297.767 188.824 C 295.810 189.105,293.753 190.168,293.212 191.178 C 290.413 196.407,299.835 201.427,308.376 199.258 C 312.507 198.208,312.400 198.208,312.400 199.254 C 312.400 207.309,323.373 211.215,330.669 205.756 C 333.056 203.970,333.856 200.482,332.736 196.744 C 332.197 194.946,332.473 194.416,333.443 195.386 C 335.724 197.667,339.475 196.500,340.759 193.111 C 341.390 191.446,340.322 188.958,337.939 186.541 C 336.062 184.638,335.973 184.463,336.757 184.214 C 341.875 182.589,340.603 176.082,334.929 174.865 C 332.097 174.258,328.244 175.260,326.822 176.974 C 326.026 177.933,325.200 177.736,325.200 176.587 C 325.200 171.660,319.201 167.455,315.200 169.578 M332.250 281.455 C 324.381 283.871,321.027 290.829,322.566 301.548 C 322.961 304.302,323.375 306.791,323.485 307.078 C 323.929 308.234,322.879 307.493,321.697 305.817 C 318.881 301.822,311.890 300.364,308.910 303.149 C 307.097 304.844,306.384 306.915,306.119 311.256 C 305.875 315.275,305.598 315.892,304.752 314.310 C 303.603 312.163,300.888 309.872,297.601 308.275 C 287.058 303.153,274.301 308.515,269.225 320.200 C 267.803 323.475,267.708 323.725,267.208 325.566 C 266.716 327.378,266.020 327.242,266.006 325.331 C 265.980 321.640,260.032 318.573,256.093 320.219 C 252.874 321.564,251.986 323.200,254.475 323.200 C 260.716 323.200,263.038 332.935,258.105 338.421 L 256.326 340.400 259.063 340.405 C 272.014 340.427,280.767 352.830,276.420 365.001 C 275.948 366.320,275.450 367.755,275.312 368.188 C 275.142 368.719,275.833 368.315,277.430 366.948 C 288.952 357.088,298.963 356.333,303.230 365.001 C 306.263 371.162,304.765 377.593,298.775 384.131 C 296.130 387.017,296.146 387.221,298.918 385.995 C 312.128 380.152,325.008 385.399,327.321 397.567 L 327.783 400.000 358.749 400.000 L 389.715 400.000 389.489 397.100 C 389.069 391.745,386.063 387.453,381.573 385.800 C 378.689 384.738,373.209 384.710,371.263 385.747 C 369.430 386.723,369.351 386.429,370.771 383.913 C 375.786 375.028,372.600 363.604,363.971 359.525 C 361.442 358.329,361.475 358.260,364.822 357.733 C 387.933 354.094,385.685 320.800,362.329 320.800 C 358.323 320.800,358.422 320.915,359.924 317.989 C 369.484 299.365,351.451 275.558,332.250 281.455 M158.200 285.485 C 156.908 285.795,152.290 287.681,151.649 288.160 C 143.834 293.999,141.860 303.958,145.378 319.800 C 146.206 323.525,146.198 323.549,144.700 322.099 C 138.581 316.177,127.600 321.863,127.600 330.954 C 127.600 332.986,127.159 332.782,124.864 329.687 C 118.304 320.837,106.541 321.270,106.364 330.369 C 106.289 334.258,106.466 336.284,107.077 338.511 C 107.852 341.333,107.682 341.571,106.011 340.010 C 102.088 336.346,96.096 337.304,91.328 342.358 C 90.598 343.133,90.000 343.920,90.000 344.107 C 90.000 344.294,89.820 344.336,89.600 344.200 C 89.380 344.064,89.196 343.288,89.191 342.476 C 89.159 337.084,83.035 333.083,77.696 334.966 C 71.779 337.054,68.871 341.574,68.427 349.375 L 68.200 353.350 67.160 351.775 C 65.071 348.611,59.557 347.227,55.933 348.959 C 50.389 351.608,47.253 359.712,48.720 367.600 C 49.228 370.333,49.160 370.399,47.400 368.853 C 44.962 366.713,41.058 367.302,39.432 370.054 C 38.600 371.462,38.000 371.528,38.000 370.211 C 38.000 363.410,26.528 356.598,21.325 360.310 C 17.598 362.968,16.001 373.472,18.190 380.930 C 18.996 383.675,18.851 383.975,17.261 382.844 C 15.628 381.681,11.869 381.681,9.394 382.845 C 5.415 384.715,3.186 390.039,3.968 395.802 C 4.251 397.889,3.883 399.079,3.255 398.107 C 3.006 397.721,0.657 396.400,0.220 396.400 C 0.099 396.400,0.000 397.210,0.000 398.200 L 0.000 400.000 12.200 400.000 L 24.400 400.000 24.403 398.700 C 24.405 397.985,24.741 396.320,25.150 395.000 C 30.125 378.958,47.095 372.428,59.401 381.821 L 61.322 383.288 61.081 381.256 C 59.639 369.080,72.359 360.009,83.158 365.513 C 86.170 367.048,85.998 367.113,85.587 364.600 C 83.219 350.121,100.587 341.935,111.045 352.602 C 114.079 355.696,114.204 356.157,111.781 355.332 C 101.062 351.679,93.288 362.433,97.731 374.770 C 98.319 376.404,98.800 377.847,98.800 377.978 C 98.800 378.109,97.495 378.158,95.900 378.087 C 88.364 377.753,86.526 384.581,92.428 390.984 C 93.293 391.922,94.000 392.759,93.999 392.845 C 93.998 392.930,91.470 393.037,88.380 393.082 C 82.321 393.170,79.188 393.747,75.775 395.403 C 73.566 396.475,70.000 399.099,70.000 399.654 C 70.000 399.848,110.144 400.000,161.400 400.000 C 211.670 400.000,252.800 399.847,252.800 399.660 C 252.800 398.447,249.015 394.546,246.652 393.323 C 241.609 390.714,232.903 391.447,225.863 395.073 C 223.991 396.037,224.229 395.394,226.308 393.867 C 239.889 383.898,238.368 367.811,223.594 365.171 C 218.329 364.230,212.740 365.837,206.246 370.158 C 204.393 371.391,202.800 372.400,202.706 372.400 C 202.613 372.400,203.049 371.365,203.675 370.100 C 211.108 355.089,193.529 340.802,180.411 351.192 C 178.083 353.035,178.061 353.269,180.890 346.200 C 183.452 339.797,187.681 332.697,190.538 330.003 C 196.918 323.985,208.659 323.798,214.970 329.615 C 215.977 330.543,216.794 331.144,216.786 330.951 C 216.778 330.758,216.511 329.520,216.192 328.200 C 212.287 312.026,224.241 296.287,239.649 297.314 C 241.326 297.426,243.081 297.722,243.549 297.973 C 245.199 298.856,244.407 297.631,242.300 296.041 C 228.225 285.421,208.331 292.163,204.812 308.746 C 204.352 310.912,203.600 311.775,203.600 310.137 C 203.600 308.288,200.925 304.341,198.733 302.958 C 193.977 299.955,189.812 301.501,185.813 307.753 C 184.005 310.578,183.772 310.434,183.478 306.312 C 182.534 293.091,169.894 282.676,158.200 285.485 " stroke="none" fill="#ebecec" fill-rule="evenodd"></path><path id="path2" d="M84.000 98.600 C 83.028 99.590,82.323 100.400,82.433 100.400 C 82.543 100.400,83.428 99.590,84.400 98.600 C 85.372 97.610,86.077 96.800,85.967 96.800 C 85.857 96.800,84.972 97.610,84.000 98.600 M215.714 105.400 C 215.717 106.500,215.795 106.903,215.887 106.295 C 215.979 105.686,215.977 104.786,215.882 104.295 C 215.787 103.803,215.711 104.300,215.714 105.400 M217.775 106.100 L 216.600 107.400 217.900 106.225 C 218.615 105.579,219.200 104.994,219.200 104.925 C 219.200 104.616,218.870 104.888,217.775 106.100 M256.300 107.493 C 257.235 107.577,258.765 107.577,259.700 107.493 C 260.635 107.409,259.870 107.340,258.000 107.340 C 256.130 107.340,255.365 107.409,256.300 107.493 M61.907 111.890 C 62.626 111.979,63.706 111.977,64.307 111.886 C 64.908 111.795,64.320 111.722,63.000 111.724 C 61.680 111.726,61.188 111.801,61.907 111.890 M239.578 114.700 L 238.200 116.200 239.700 114.822 C 241.096 113.538,241.384 113.200,241.078 113.200 C 241.012 113.200,240.337 113.875,239.578 114.700 M76.114 116.200 C 76.117 117.300,76.195 117.703,76.287 117.095 C 76.379 116.486,76.377 115.586,76.282 115.095 C 76.187 114.603,76.111 115.100,76.114 116.200 M52.175 116.100 L 51.000 117.400 52.300 116.225 C 53.015 115.579,53.600 114.994,53.600 114.925 C 53.600 114.616,53.270 114.888,52.175 116.100 M350.705 116.283 C 351.202 116.379,351.922 116.375,352.305 116.275 C 352.687 116.175,352.280 116.096,351.400 116.101 C 350.520 116.105,350.207 116.187,350.705 116.283 M386.909 126.400 C 386.909 127.390,386.987 127.795,387.082 127.300 C 387.178 126.805,387.178 125.995,387.082 125.500 C 386.987 125.005,386.909 125.410,386.909 126.400 M282.493 130.400 C 282.493 131.170,282.575 131.485,282.676 131.100 C 282.776 130.715,282.776 130.085,282.676 129.700 C 282.575 129.315,282.493 129.630,282.493 130.400 M377.656 131.200 C 377.656 131.530,377.811 132.160,378.000 132.600 C 378.217 133.104,378.344 133.178,378.344 132.800 C 378.344 132.470,378.189 131.840,378.000 131.400 C 377.783 130.896,377.656 130.822,377.656 131.200 M282.493 134.800 C 282.493 135.570,282.575 135.885,282.676 135.500 C 282.776 135.115,282.776 134.485,282.676 134.100 C 282.575 133.715,282.493 134.030,282.493 134.800 M343.567 136.545 C 344.100 137.201,345.600 138.193,345.600 137.889 C 345.600 137.813,345.015 137.322,344.300 136.799 C 343.496 136.210,343.216 136.113,343.567 136.545 M346.600 138.400 C 347.040 138.589,347.760 138.738,348.200 138.732 C 348.843 138.723,348.804 138.657,348.000 138.400 C 346.632 137.962,345.581 137.962,346.600 138.400 M375.517 140.041 C 374.482 141.118,373.710 142.000,373.803 142.000 C 374.167 142.000,376.853 139.448,377.229 138.745 C 377.777 137.722,377.664 137.807,375.517 140.041 M368.500 142.687 C 369.105 142.778,370.095 142.778,370.700 142.687 C 371.305 142.595,370.810 142.520,369.600 142.520 C 368.390 142.520,367.895 142.595,368.500 142.687 M275.200 151.000 C 274.228 151.990,273.523 152.800,273.633 152.800 C 273.743 152.800,274.628 151.990,275.600 151.000 C 276.572 150.010,277.277 149.200,277.167 149.200 C 277.057 149.200,276.172 150.010,275.200 151.000 M238.501 153.800 C 238.505 154.680,238.587 154.993,238.683 154.495 C 238.779 153.998,238.775 153.278,238.675 152.895 C 238.575 152.513,238.496 152.920,238.501 153.800 M45.709 154.800 C 45.709 155.790,45.787 156.195,45.882 155.700 C 45.978 155.205,45.978 154.395,45.882 153.900 C 45.787 153.405,45.709 153.810,45.709 154.800 M30.105 153.887 C 30.714 153.979,31.614 153.977,32.105 153.882 C 32.597 153.787,32.100 153.711,31.000 153.714 C 29.900 153.717,29.497 153.795,30.105 153.887 M257.305 157.887 C 257.914 157.979,258.814 157.977,259.305 157.882 C 259.797 157.787,259.300 157.711,258.200 157.714 C 257.100 157.717,256.697 157.795,257.305 157.887 M160.581 168.500 L 159.000 170.200 160.700 168.619 C 162.281 167.148,162.584 166.800,162.281 166.800 C 162.216 166.800,161.451 167.565,160.581 168.500 M185.800 169.050 C 185.081 169.662,184.934 169.905,185.433 169.657 C 186.166 169.293,187.541 167.976,187.149 168.014 C 187.067 168.022,186.460 168.488,185.800 169.050 M301.500 173.082 C 301.995 173.178,302.805 173.178,303.300 173.082 C 303.795 172.987,303.390 172.909,302.400 172.909 C 301.410 172.909,301.005 172.987,301.500 173.082 M294.093 180.800 C 294.093 181.570,294.175 181.885,294.276 181.500 C 294.376 181.115,294.376 180.485,294.276 180.100 C 294.175 179.715,294.093 180.030,294.093 180.800 M149.040 182.196 C 148.681 182.744,147.474 183.914,146.358 184.796 C 145.241 185.678,144.482 186.400,144.671 186.400 C 145.183 186.400,149.147 182.847,149.619 181.965 C 150.208 180.863,149.808 181.023,149.040 182.196 M40.893 185.600 C 40.893 186.370,40.975 186.685,41.076 186.300 C 41.176 185.915,41.176 185.285,41.076 184.900 C 40.975 184.515,40.893 184.830,40.893 185.600 M123.233 186.943 C 123.325 187.022,124.120 187.197,125.000 187.332 C 126.090 187.499,126.409 187.455,126.000 187.195 C 125.453 186.846,122.845 186.609,123.233 186.943 M127.600 187.200 C 128.133 187.545,128.133 187.589,127.600 187.600 C 126.888 187.615,127.869 188.388,128.600 188.388 C 128.820 188.388,128.730 188.213,128.400 188.000 C 127.901 187.677,127.935 187.606,128.600 187.578 L 129.400 187.544 128.600 187.200 C 127.500 186.727,126.869 186.727,127.600 187.200 M132.100 188.276 C 132.485 188.376,133.115 188.376,133.500 188.276 C 133.885 188.175,133.570 188.093,132.800 188.093 C 132.030 188.093,131.715 188.175,132.100 188.276 M137.700 188.276 C 138.085 188.376,138.715 188.376,139.100 188.276 C 139.485 188.175,139.170 188.093,138.400 188.093 C 137.630 188.093,137.315 188.175,137.700 188.276 M130.000 188.873 C 133.897 192.409,134.580 192.952,133.000 191.255 C 132.120 190.310,131.040 189.347,130.600 189.114 C 130.160 188.882,129.890 188.773,130.000 188.873 M137.062 199.800 C 137.196 200.680,137.372 201.475,137.453 201.567 C 137.756 201.910,137.529 199.768,137.181 199.000 C 136.929 198.442,136.893 198.685,137.062 199.800 M67.507 203.890 C 68.226 203.979,69.306 203.977,69.907 203.886 C 70.508 203.795,69.920 203.722,68.600 203.724 C 67.280 203.726,66.788 203.801,67.507 203.890 M137.040 206.440 C 136.893 207.357,136.852 208.185,136.947 208.280 C 137.042 208.376,137.246 207.710,137.400 206.800 C 137.554 205.890,137.596 205.062,137.493 204.960 C 137.390 204.857,137.187 205.523,137.040 206.440 M60.378 207.100 L 59.000 208.600 60.500 207.222 C 61.896 205.938,62.184 205.600,61.878 205.600 C 61.812 205.600,61.137 206.275,60.378 207.100 M75.570 206.503 C 76.704 207.786,76.800 207.820,76.800 206.933 C 76.800 206.567,76.680 206.387,76.532 206.534 C 76.385 206.681,75.890 206.488,75.432 206.104 C 74.826 205.595,74.863 205.704,75.570 206.503 M33.091 206.289 C 33.801 206.377,35.061 206.379,35.891 206.292 C 36.721 206.205,36.140 206.133,34.600 206.131 C 33.060 206.129,32.381 206.200,33.091 206.289 M23.322 209.829 L 22.200 210.858 23.500 209.954 C 24.215 209.457,24.800 208.993,24.800 208.925 C 24.800 208.609,24.358 208.880,23.322 209.829 M55.781 214.037 C 55.429 214.718,55.212 215.345,55.299 215.432 C 55.386 215.519,55.756 214.962,56.122 214.195 C 56.944 212.470,56.659 212.338,55.781 214.037 M130.378 219.100 L 129.000 220.600 130.500 219.222 C 131.896 217.938,132.184 217.600,131.878 217.600 C 131.812 217.600,131.137 218.275,130.378 219.100 M128.267 220.667 C 127.680 221.253,128.046 221.998,128.900 221.954 C 129.622 221.916,129.656 221.870,129.071 221.719 C 128.642 221.608,128.431 221.297,128.558 220.965 C 128.793 220.353,128.688 220.245,128.267 220.667 M131.705 221.487 C 132.314 221.579,133.214 221.577,133.705 221.482 C 134.197 221.387,133.700 221.311,132.600 221.314 C 131.500 221.317,131.097 221.395,131.705 221.487 M136.300 221.882 C 136.795 221.978,137.605 221.978,138.100 221.882 C 138.595 221.787,138.190 221.709,137.200 221.709 C 136.210 221.709,135.805 221.787,136.300 221.882 M142.400 222.800 C 143.768 223.238,144.819 223.238,143.800 222.800 C 143.360 222.611,142.640 222.462,142.200 222.468 C 141.557 222.477,141.596 222.543,142.400 222.800 M14.650 224.450 C 14.317 226.117,14.640 226.440,15.000 224.800 C 15.152 224.109,15.193 223.459,15.091 223.358 C 14.989 223.256,14.791 223.747,14.650 224.450 M57.692 224.997 C 52.205 226.535,47.879 230.545,46.176 235.673 L 45.549 237.560 42.474 234.977 C 30.158 224.630,19.227 228.164,19.205 242.500 C 19.202 244.205,19.053 245.600,18.873 245.600 C 18.694 245.600,17.515 245.409,16.253 245.176 C 9.553 243.937,3.714 248.164,2.012 255.485 C 1.671 256.953,1.293 257.644,0.734 257.821 C 0.297 257.960,0.028 258.161,0.136 258.269 C 0.243 258.377,0.685 258.276,1.116 258.045 C 1.835 257.660,1.916 257.783,2.083 259.520 C 2.732 266.282,9.844 272.400,17.053 272.400 C 21.087 272.400,27.256 269.738,28.467 267.475 C 28.808 266.837,28.955 266.795,29.260 267.246 C 29.569 267.705,29.618 267.697,29.542 267.200 C 28.998 263.617,33.067 255.389,36.868 252.384 C 41.397 248.804,53.479 247.062,57.906 249.351 L 59.161 250.000 58.922 245.263 C 58.334 233.566,65.203 227.334,73.927 231.652 C 76.600 232.975,76.538 232.644,73.555 229.651 C 69.052 225.134,63.262 223.435,57.692 224.997 M155.200 237.519 C 155.200 237.768,154.622 238.653,153.915 239.486 C 152.763 240.843,152.746 240.896,153.751 240.000 C 155.017 238.872,155.780 237.646,155.432 237.299 C 155.305 237.171,155.200 237.270,155.200 237.519 M132.000 241.600 C 132.550 241.776,133.360 241.920,133.800 241.920 C 134.433 241.920,134.392 241.854,133.600 241.600 C 133.050 241.424,132.240 241.280,131.800 241.280 C 131.167 241.280,131.208 241.346,132.000 241.600 M138.305 242.683 C 138.802 242.779,139.522 242.775,139.905 242.675 C 140.287 242.575,139.880 242.496,139.000 242.501 C 138.120 242.505,137.807 242.587,138.305 242.683 M142.311 243.093 C 143.251 243.178,144.691 243.177,145.511 243.091 C 146.330 243.005,145.560 242.936,143.800 242.937 C 142.040 242.939,141.370 243.009,142.311 243.093 M126.920 247.600 C 126.920 248.810,126.995 249.305,127.087 248.700 C 127.178 248.095,127.178 247.105,127.087 246.500 C 126.995 245.895,126.920 246.390,126.920 247.600 M96.975 252.500 L 95.800 253.800 97.100 252.625 C 98.312 251.530,98.584 251.200,98.275 251.200 C 98.206 251.200,97.621 251.785,96.975 252.500 M124.399 255.300 C 123.810 256.104,123.713 256.384,124.145 256.033 C 124.801 255.500,125.793 254.000,125.489 254.000 C 125.413 254.000,124.922 254.585,124.399 255.300 M75.900 259.893 C 76.835 259.977,78.365 259.977,79.300 259.893 C 80.235 259.809,79.470 259.740,77.600 259.740 C 75.730 259.740,74.965 259.809,75.900 259.893 M112.505 261.087 C 113.114 261.179,114.014 261.177,114.505 261.082 C 114.997 260.987,114.500 260.911,113.400 260.914 C 112.300 260.917,111.897 260.995,112.505 261.087 M64.399 270.900 C 63.810 271.704,63.713 271.984,64.145 271.633 C 64.801 271.100,65.793 269.600,65.489 269.600 C 65.413 269.600,64.922 270.185,64.399 270.900 M33.800 275.600 C 34.883 276.700,35.860 277.600,35.970 277.600 C 36.080 277.600,35.283 276.700,34.200 275.600 C 33.117 274.500,32.140 273.600,32.030 273.600 C 31.920 273.600,32.717 274.500,33.800 275.600 M44.711 280.693 C 45.651 280.778,47.091 280.777,47.911 280.691 C 48.730 280.605,47.960 280.536,46.200 280.537 C 44.440 280.539,43.770 280.609,44.711 280.693 M325.775 284.900 L 324.600 286.200 325.900 285.025 C 326.615 284.379,327.200 283.794,327.200 283.725 C 327.200 283.416,326.870 283.688,325.775 284.900 M228.900 290.676 C 229.285 290.776,229.915 290.776,230.300 290.676 C 230.685 290.575,230.370 290.493,229.600 290.493 C 228.830 290.493,228.515 290.575,228.900 290.676 M321.709 296.800 C 321.709 297.790,321.787 298.195,321.882 297.700 C 321.978 297.205,321.978 296.395,321.882 295.900 C 321.787 295.405,321.709 295.810,321.709 296.800 M246.835 300.400 C 248.436 302.604,249.036 303.262,248.477 302.200 C 248.245 301.760,247.487 300.770,246.792 300.000 L 245.528 298.600 246.835 300.400 M362.893 304.400 C 362.893 305.170,362.975 305.485,363.076 305.100 C 363.176 304.715,363.176 304.085,363.076 303.700 C 362.975 303.315,362.893 303.630,362.893 304.400 M362.893 308.000 C 362.893 308.770,362.975 309.085,363.076 308.700 C 363.176 308.315,363.176 307.685,363.076 307.300 C 362.975 306.915,362.893 307.230,362.893 308.000 M184.054 308.100 C 183.999 309.225,184.526 309.567,185.038 308.738 C 185.208 308.463,185.149 308.385,184.890 308.544 C 184.640 308.699,184.384 308.429,184.283 307.906 C 184.132 307.122,184.102 307.148,184.054 308.100 M252.493 317.200 C 252.493 317.970,252.575 318.285,252.676 317.900 C 252.776 317.515,252.776 316.885,252.676 316.500 C 252.575 316.115,252.493 316.430,252.493 317.200 M361.505 320.283 C 362.002 320.379,362.722 320.375,363.105 320.275 C 363.487 320.175,363.080 320.096,362.200 320.101 C 361.320 320.105,361.007 320.187,361.505 320.283 M105.720 332.400 C 105.720 333.610,105.795 334.105,105.887 333.500 C 105.978 332.895,105.978 331.905,105.887 331.300 C 105.795 330.695,105.720 331.190,105.720 332.400 M79.905 334.283 C 80.402 334.379,81.122 334.375,81.505 334.275 C 81.887 334.175,81.480 334.096,80.600 334.101 C 79.720 334.105,79.407 334.187,79.905 334.283 M381.693 340.400 C 381.693 341.170,381.775 341.485,381.876 341.100 C 381.976 340.715,381.976 340.085,381.876 339.700 C 381.775 339.315,381.693 339.630,381.693 340.400 M91.578 341.500 L 90.200 343.000 91.700 341.622 C 93.096 340.338,93.384 340.000,93.078 340.000 C 93.012 340.000,92.337 340.675,91.578 341.500 M52.175 351.300 L 51.000 352.600 52.300 351.425 C 53.512 350.330,53.784 350.000,53.475 350.000 C 53.406 350.000,52.821 350.585,52.175 351.300 M375.775 352.500 L 374.600 353.800 375.900 352.625 C 376.615 351.979,377.200 351.394,377.200 351.325 C 377.200 351.016,376.870 351.288,375.775 352.500 M362.800 358.331 C 362.800 358.513,363.340 358.582,364.000 358.485 C 364.660 358.388,365.200 358.240,365.200 358.155 C 365.200 358.070,364.660 358.000,364.000 358.000 C 363.340 358.000,362.800 358.149,362.800 358.331 M368.400 362.600 C 369.146 363.370,369.847 364.000,369.957 364.000 C 370.067 364.000,369.546 363.370,368.800 362.600 C 368.054 361.830,367.353 361.200,367.243 361.200 C 367.133 361.200,367.654 361.830,368.400 362.600 M3.314 393.800 C 3.317 394.900,3.395 395.303,3.487 394.695 C 3.579 394.086,3.577 393.186,3.482 392.695 C 3.387 392.203,3.311 392.700,3.314 393.800 " stroke="none" fill="#becedd" fill-rule="evenodd"></path><path id="path3" d="M0.000 114.075 L 0.000 228.150 1.100 227.121 C 3.577 224.803,6.171 224.253,9.051 225.436 C 10.839 226.171,13.184 228.270,13.234 229.178 C 13.252 229.520,13.683 228.090,14.191 226.000 C 16.027 218.442,17.526 215.306,21.000 211.750 C 28.930 203.632,41.401 203.890,48.827 212.325 C 50.357 214.063,52.765 218.492,52.827 219.683 C 52.842 219.967,53.052 219.750,53.294 219.200 C 58.761 206.770,61.883 203.600,68.653 203.600 C 71.624 203.600,73.310 204.116,74.902 205.512 C 75.911 206.397,75.991 206.054,75.288 203.874 C 74.799 202.357,74.363 201.793,73.233 201.215 C 68.879 198.988,65.600 194.112,65.600 189.863 L 65.600 187.590 64.008 188.595 C 63.132 189.148,62.312 189.600,62.186 189.600 C 62.060 189.600,61.118 189.982,60.095 190.448 C 55.260 192.650,49.997 193.664,46.652 193.036 C 43.439 192.433,39.567 186.703,40.807 184.387 C 41.401 183.277,41.098 183.012,39.943 183.630 C 35.809 185.843,25.017 183.691,21.026 179.859 C 8.543 167.871,18.960 150.347,36.275 154.208 C 41.395 155.349,44.200 156.068,44.848 156.405 C 45.407 156.696,45.523 156.374,45.688 154.071 C 45.911 150.972,47.398 147.469,49.459 145.188 L 50.798 143.706 49.641 141.153 C 44.421 129.627,47.222 117.650,56.200 113.109 C 61.885 110.233,69.847 111.541,74.404 116.098 L 76.000 117.694 76.000 115.375 C 76.000 112.982,76.227 112.025,77.844 107.600 C 79.926 101.905,85.739 95.834,91.800 93.024 C 92.680 92.616,93.691 92.142,94.047 91.971 C 95.399 91.320,102.142 90.313,103.735 90.525 C 109.834 91.333,113.196 92.428,117.400 94.975 C 122.716 98.194,127.005 102.771,129.772 108.174 L 131.122 110.810 132.261 109.583 C 138.949 102.377,146.235 102.858,154.242 111.034 L 155.883 112.711 156.342 110.725 C 156.594 109.633,156.800 108.418,156.800 108.025 C 156.800 98.860,169.626 83.727,179.519 81.220 C 180.333 81.014,181.810 80.640,182.800 80.389 C 185.641 79.669,195.272 80.129,198.031 81.116 C 208.712 84.936,215.927 94.599,215.986 105.162 L 216.000 107.725 217.666 106.076 C 225.059 98.755,237.058 102.900,238.609 113.310 L 238.894 115.221 240.147 114.021 C 242.494 111.774,243.329 111.194,246.165 109.838 C 268.879 98.980,291.098 121.677,280.197 144.602 C 278.925 147.276,278.554 147.817,276.076 150.614 C 270.257 157.179,258.517 159.814,248.802 156.737 C 245.953 155.834,240.976 153.868,240.211 153.342 C 238.990 152.503,238.932 152.598,238.651 155.900 C 237.508 169.332,226.388 177.291,212.543 174.586 C 210.814 174.248,209.087 173.798,208.705 173.586 C 208.323 173.374,207.819 173.200,207.583 173.200 C 204.991 173.200,196.800 166.698,196.800 164.640 C 196.800 164.533,196.395 163.767,195.900 162.938 C 195.405 162.109,194.620 160.545,194.155 159.462 L 193.309 157.493 193.047 158.892 C 190.712 171.335,175.012 176.835,164.821 168.779 L 162.719 167.117 161.259 168.517 C 159.338 170.361,155.515 172.757,154.017 173.057 C 152.751 173.310,152.612 173.564,152.192 176.400 C 150.844 185.506,140.186 190.786,129.200 187.790 C 128.531 187.608,128.700 187.798,129.711 188.365 C 139.997 194.138,140.526 209.108,130.794 219.041 L 128.795 221.081 134.297 221.322 C 137.324 221.455,140.520 221.764,141.400 222.010 C 142.280 222.256,143.990 222.736,145.200 223.077 C 157.667 226.589,160.492 238.649,149.742 242.462 C 147.178 243.371,139.064 243.368,135.200 242.456 C 134.210 242.222,131.566 241.609,129.324 241.094 L 125.247 240.157 125.788 241.178 C 132.901 254.615,115.786 267.733,104.325 257.629 C 102.625 256.130,100.000 251.862,100.000 250.596 C 100.000 250.334,99.109 250.974,98.020 252.018 C 96.264 253.702,92.667 256.400,92.178 256.400 C 92.078 256.400,91.100 256.832,90.005 257.361 C 85.331 259.615,77.598 260.566,71.800 259.600 C 70.681 259.413,70.557 259.521,69.966 261.200 C 69.617 262.190,69.122 263.507,68.866 264.126 C 68.610 264.745,68.400 265.340,68.400 265.448 C 68.400 266.317,63.829 272.439,61.665 274.469 C 52.712 282.869,39.814 283.043,32.798 274.858 C 31.922 273.836,31.204 272.775,31.203 272.500 C 31.201 272.225,31.050 272.000,30.867 272.000 C 30.684 272.000,30.199 270.951,29.789 269.668 L 29.044 267.337 28.222 268.258 C 20.562 276.838,4.617 272.245,1.947 260.689 C 1.559 259.011,1.247 258.409,0.806 258.494 C -0.147 258.678,-0.317 396.000,0.637 396.000 C 0.989 396.000,1.754 396.339,2.338 396.754 L 3.400 397.508 3.442 393.454 C 3.532 384.827,10.319 378.707,16.420 381.750 C 18.101 382.588,18.187 382.458,17.429 380.224 C 15.416 374.297,17.088 363.449,20.492 360.341 C 25.496 355.774,38.400 362.254,38.400 369.334 C 38.400 370.006,38.576 369.935,39.620 368.842 C 41.720 366.645,44.378 366.180,46.710 367.601 C 47.430 368.041,48.060 368.400,48.110 368.401 C 48.159 368.401,48.144 366.321,48.075 363.778 C 47.726 350.823,58.698 342.593,66.250 350.145 L 67.915 351.809 68.090 348.005 C 68.753 333.605,86.915 328.182,89.789 341.525 L 90.075 342.851 91.737 341.192 C 96.107 336.832,102.431 335.961,105.945 339.234 C 106.968 340.188,106.959 340.284,106.154 337.142 C 102.525 322.976,115.893 317.213,125.042 329.000 C 125.725 329.880,126.386 330.870,126.510 331.200 C 126.701 331.705,126.742 331.697,126.768 331.152 C 127.182 322.674,136.400 316.449,143.043 320.162 C 144.065 320.733,144.946 321.200,145.001 321.200 C 145.056 321.200,144.846 320.075,144.534 318.700 C 139.845 298.006,146.724 284.812,162.200 284.812 C 173.556 284.812,182.898 293.901,184.218 306.234 L 184.499 308.850 185.279 307.567 C 186.110 306.200,186.324 305.948,188.912 303.292 C 193.160 298.930,200.442 301.095,203.293 307.567 L 204.101 309.400 204.577 307.400 C 206.294 300.187,213.270 293.317,221.400 290.832 C 224.365 289.926,233.668 290.626,236.314 291.955 C 239.816 293.713,240.844 294.300,242.453 295.462 C 244.119 296.665,245.663 298.218,247.696 300.737 C 249.452 302.913,251.066 306.744,252.377 311.846 C 252.938 314.029,252.919 320.623,252.348 321.726 C 251.946 322.504,252.023 322.484,253.048 321.546 C 257.542 317.433,265.157 319.137,266.272 324.505 C 266.477 325.492,266.601 325.329,267.422 322.977 C 273.511 305.552,294.830 299.653,304.329 312.765 L 305.429 314.283 305.511 311.442 C 305.806 301.361,313.984 297.557,321.046 304.218 L 322.481 305.571 322.237 303.886 C 320.144 289.419,324.696 281.372,335.600 280.264 C 338.731 279.945,345.595 281.045,346.580 282.023 C 346.789 282.230,347.181 282.400,347.451 282.400 C 349.593 282.400,356.811 288.526,359.356 292.504 C 363.878 299.573,364.435 309.510,360.759 317.528 C 360.122 318.918,359.601 320.088,359.603 320.128 C 359.604 320.168,361.102 320.210,362.932 320.222 C 366.306 320.245,367.260 320.491,371.200 322.350 C 385.995 329.331,385.007 350.709,369.600 356.957 C 366.252 358.315,365.964 358.400,364.703 358.400 L 363.443 358.400 365.222 359.532 C 373.345 364.704,376.422 375.879,371.758 383.267 C 370.626 385.060,370.484 385.960,371.461 385.149 C 373.155 383.743,384.000 384.892,384.000 386.477 C 384.000 386.655,384.225 386.806,384.500 386.813 C 386.575 386.865,389.624 392.338,389.953 396.600 L 390.200 399.800 395.100 399.912 L 400.000 400.025 400.000 200.012 L 400.000 0.000 200.000 0.000 L 0.000 0.000 0.000 114.075 M369.272 114.437 C 371.648 115.649,373.127 117.440,373.432 119.475 C 373.574 120.424,373.740 121.200,373.800 121.200 C 373.860 121.200,374.403 120.944,375.007 120.630 C 382.501 116.742,390.995 124.280,385.838 130.242 C 384.499 131.790,384.470 131.800,381.545 131.800 L 378.600 131.800 378.590 134.400 C 378.571 139.566,374.774 143.056,369.296 142.943 C 367.919 142.915,366.569 142.716,366.296 142.501 C 366.023 142.286,365.320 141.996,364.733 141.856 C 364.146 141.716,362.681 140.701,361.477 139.601 C 359.348 137.655,357.253 136.944,356.629 137.954 C 356.326 138.444,353.420 138.836,350.013 138.847 C 340.933 138.876,339.485 130.386,348.200 128.213 C 349.343 127.928,349.358 127.898,348.519 127.577 C 345.999 126.613,344.628 122.234,345.975 119.452 C 348.216 114.822,354.669 114.743,356.594 119.322 L 357.107 120.540 357.716 119.370 C 360.190 114.620,365.330 112.426,369.272 114.437 M321.473 169.661 C 323.899 171.314,326.442 175.361,325.755 176.474 C 325.379 177.082,326.048 176.804,327.348 175.813 C 332.151 172.149,340.800 175.071,340.800 180.357 C 340.800 181.559,338.857 184.060,337.600 184.477 C 337.147 184.627,337.408 185.121,338.666 186.492 C 341.695 189.794,342.270 191.897,340.802 194.304 C 339.237 196.871,336.660 197.769,334.323 196.560 C 333.095 195.925,333.088 195.927,333.368 196.860 C 335.469 203.846,331.270 208.600,323.000 208.600 C 316.196 208.600,312.497 205.489,311.646 199.051 C 311.621 198.859,311.375 198.886,311.100 199.110 C 309.982 200.022,304.538 200.532,301.372 200.021 C 291.864 198.488,288.754 191.422,296.310 188.521 C 297.570 188.037,298.298 187.632,297.929 187.621 C 296.906 187.589,294.848 184.838,294.185 182.615 C 291.609 173.980,305.468 168.787,309.804 176.763 L 310.368 177.800 310.384 176.813 C 310.489 170.359,316.659 166.380,321.473 169.661 M122.897 186.100 C 122.988 186.375,123.678 186.646,124.431 186.702 L 125.800 186.804 124.454 186.202 C 122.821 185.472,122.688 185.463,122.897 186.100 " stroke="none" fill="#a4c4dc" fill-rule="evenodd"></path><path id="path4" d="M166.800 89.000 C 165.828 89.990,165.123 90.800,165.233 90.800 C 165.343 90.800,166.228 89.990,167.200 89.000 C 168.172 88.010,168.877 87.200,168.767 87.200 C 168.657 87.200,167.772 88.010,166.800 89.000 M101.507 90.690 C 102.226 90.779,103.306 90.777,103.907 90.686 C 104.508 90.595,103.920 90.522,102.600 90.524 C 101.280 90.526,100.788 90.601,101.507 90.690 M238.493 114.400 C 238.493 115.170,238.575 115.485,238.676 115.100 C 238.776 114.715,238.776 114.085,238.676 113.700 C 238.575 113.315,238.493 113.630,238.493 114.400 M378.700 119.882 C 379.195 119.978,380.005 119.978,380.500 119.882 C 380.995 119.787,380.590 119.709,379.600 119.709 C 378.610 119.709,378.205 119.787,378.700 119.882 M345.293 122.000 C 345.293 122.770,345.375 123.085,345.476 122.700 C 345.576 122.315,345.576 121.685,345.476 121.300 C 345.375 120.915,345.293 121.230,345.293 122.000 M387.293 126.400 C 387.293 127.170,387.375 127.485,387.476 127.100 C 387.576 126.715,387.576 126.085,387.476 125.700 C 387.375 125.315,387.293 125.630,387.293 126.400 M46.924 129.800 C 46.926 131.120,47.001 131.612,47.090 130.893 C 47.179 130.174,47.177 129.094,47.086 128.493 C 46.995 127.892,46.922 128.480,46.924 129.800 M378.509 134.400 C 378.509 135.390,378.587 135.795,378.682 135.300 C 378.778 134.805,378.778 133.995,378.682 133.500 C 378.587 133.005,378.509 133.410,378.509 134.400 M375.775 140.500 L 374.600 141.800 375.900 140.625 C 376.615 139.979,377.200 139.394,377.200 139.325 C 377.200 139.016,376.870 139.288,375.775 140.500 M187.978 167.500 L 186.600 169.000 188.100 167.622 C 188.925 166.863,189.600 166.188,189.600 166.122 C 189.600 165.816,189.262 166.104,187.978 167.500 M160.981 168.500 L 159.400 170.200 161.094 168.625 L 162.788 167.049 163.894 168.025 L 165.000 169.000 164.030 167.900 C 162.796 166.499,162.852 166.488,160.981 168.500 M232.378 169.500 L 231.000 171.000 232.500 169.622 C 233.896 168.338,234.184 168.000,233.878 168.000 C 233.812 168.000,233.137 168.675,232.378 169.500 M174.500 172.691 C 175.325 172.778,176.675 172.778,177.500 172.691 C 178.325 172.605,177.650 172.534,176.000 172.534 C 174.350 172.534,173.675 172.605,174.500 172.691 M332.305 174.283 C 332.802 174.379,333.522 174.375,333.905 174.275 C 334.287 174.175,333.880 174.096,333.000 174.101 C 332.120 174.105,331.807 174.187,332.305 174.283 M216.311 175.093 C 217.251 175.178,218.691 175.177,219.511 175.091 C 220.330 175.005,219.560 174.936,217.800 174.937 C 216.040 174.939,215.370 175.009,216.311 175.093 M340.200 180.200 C 340.200 181.148,340.335 181.840,340.500 181.738 C 340.665 181.636,340.800 180.944,340.800 180.200 C 340.800 179.456,340.665 178.764,340.500 178.662 C 340.335 178.560,340.200 179.252,340.200 180.200 M125.600 186.821 C 125.600 187.029,125.646 187.200,125.703 187.200 C 125.759 187.200,126.393 187.368,127.110 187.574 C 128.717 188.035,128.458 187.438,126.801 186.860 C 126.072 186.606,125.600 186.591,125.600 186.821 M134.100 188.691 C 134.925 188.778,136.275 188.778,137.100 188.691 C 137.925 188.605,137.250 188.534,135.600 188.534 C 133.950 188.534,133.275 188.605,134.100 188.691 M341.301 191.800 C 341.305 192.680,341.387 192.993,341.483 192.495 C 341.579 191.998,341.575 191.278,341.475 190.895 C 341.375 190.513,341.296 190.920,341.301 191.800 M69.200 198.200 C 69.946 198.970,70.647 199.600,70.757 199.600 C 70.867 199.600,70.346 198.970,69.600 198.200 C 68.854 197.430,68.153 196.800,68.043 196.800 C 67.933 196.800,68.454 197.430,69.200 198.200 M335.700 197.076 C 336.085 197.176,336.715 197.176,337.100 197.076 C 337.485 196.975,337.170 196.893,336.400 196.893 C 335.630 196.893,335.315 196.975,335.700 197.076 M303.300 200.287 C 303.905 200.378,304.895 200.378,305.500 200.287 C 306.105 200.195,305.610 200.120,304.400 200.120 C 303.190 200.120,302.695 200.195,303.300 200.287 M137.693 203.200 C 137.693 203.970,137.775 204.285,137.876 203.900 C 137.976 203.515,137.976 202.885,137.876 202.500 C 137.775 202.115,137.693 202.430,137.693 203.200 M47.800 211.600 C 48.659 212.480,49.452 213.200,49.562 213.200 C 49.672 213.200,49.059 212.480,48.200 211.600 C 47.341 210.720,46.548 210.000,46.438 210.000 C 46.328 210.000,46.941 210.720,47.800 211.600 M128.667 220.667 C 128.073 221.261,128.470 221.597,129.700 221.540 C 130.920 221.484,130.932 221.470,129.893 221.313 C 129.284 221.221,128.890 220.978,129.017 220.773 C 129.283 220.342,129.059 220.274,128.667 220.667 M135.105 221.483 C 135.602 221.579,136.322 221.575,136.705 221.475 C 137.087 221.375,136.680 221.296,135.800 221.301 C 134.920 221.305,134.607 221.387,135.105 221.483 M4.138 225.106 C 3.884 225.268,4.812 225.400,6.200 225.400 C 7.588 225.400,8.516 225.268,8.262 225.106 C 8.008 224.944,7.080 224.812,6.200 224.812 C 5.320 224.812,4.392 224.944,4.138 225.106 M156.114 234.600 C 156.117 235.700,156.195 236.103,156.287 235.495 C 156.379 234.886,156.377 233.986,156.282 233.495 C 156.187 233.003,156.111 233.500,156.114 234.600 M103.600 257.000 C 104.346 257.770,105.047 258.400,105.157 258.400 C 105.267 258.400,104.746 257.770,104.000 257.000 C 103.254 256.230,102.553 255.600,102.443 255.600 C 102.333 255.600,102.854 256.230,103.600 257.000 M1.200 258.000 C 0.845 258.230,0.793 258.390,1.073 258.394 C 1.334 258.397,1.622 258.895,1.713 259.500 C 1.848 260.385,1.892 260.307,1.940 259.100 C 1.973 258.275,1.955 257.603,1.900 257.606 C 1.845 257.609,1.530 257.787,1.200 258.000 M84.000 259.200 C 83.176 259.464,83.141 259.526,83.800 259.554 C 84.240 259.573,84.870 259.413,85.200 259.200 C 85.901 258.747,85.414 258.747,84.000 259.200 M5.155 267.000 C 6.246 268.435,8.221 270.099,9.600 270.747 C 10.449 271.145,10.481 271.140,9.815 270.708 C 9.383 270.429,7.952 269.210,6.636 268.000 C 5.277 266.750,4.637 266.318,5.155 267.000 M27.400 268.511 C 25.908 270.044,25.888 270.093,27.101 269.250 C 27.816 268.752,28.588 267.997,28.815 267.572 C 29.374 266.527,29.250 266.609,27.400 268.511 M25.092 270.241 C 24.960 270.374,23.715 270.917,22.326 271.448 C 20.707 272.066,20.303 272.321,21.200 272.158 C 22.590 271.904,25.600 270.559,25.600 270.192 C 25.600 269.930,25.382 269.951,25.092 270.241 M11.800 271.814 C 12.460 272.117,13.270 272.358,13.600 272.352 C 13.930 272.345,13.570 272.097,12.800 271.800 C 10.974 271.097,10.255 271.107,11.800 271.814 M15.491 272.689 C 16.201 272.777,17.461 272.779,18.291 272.692 C 19.121 272.605,18.540 272.533,17.000 272.531 C 15.460 272.529,14.781 272.600,15.491 272.689 M33.600 275.800 C 34.346 276.570,35.047 277.200,35.157 277.200 C 35.267 277.200,34.746 276.570,34.000 275.800 C 33.254 275.030,32.553 274.400,32.443 274.400 C 32.333 274.400,32.854 275.030,33.600 275.800 M336.900 280.276 C 337.285 280.376,337.915 280.376,338.300 280.276 C 338.685 280.175,338.370 280.093,337.600 280.093 C 336.830 280.093,336.515 280.175,336.900 280.276 M176.600 290.800 C 177.459 291.680,178.252 292.400,178.362 292.400 C 178.472 292.400,177.859 291.680,177.000 290.800 C 176.141 289.920,175.348 289.200,175.238 289.200 C 175.128 289.200,175.741 289.920,176.600 290.800 M221.600 290.818 C 221.162 291.115,221.324 291.152,222.200 290.956 C 223.671 290.627,223.990 290.398,222.967 290.406 C 222.545 290.409,221.930 290.595,221.600 290.818 M244.400 297.325 C 244.400 297.394,244.985 297.979,245.700 298.625 L 247.000 299.800 245.825 298.500 C 244.730 297.288,244.400 297.016,244.400 297.325 M321.701 299.800 C 321.705 300.680,321.787 300.993,321.883 300.495 C 321.979 299.998,321.975 299.278,321.875 298.895 C 321.775 298.513,321.696 298.920,321.701 299.800 M193.300 301.076 C 193.685 301.176,194.315 301.176,194.700 301.076 C 195.085 300.975,194.770 300.893,194.000 300.893 C 193.230 300.893,192.915 300.975,193.300 301.076 M142.924 306.600 C 142.926 307.920,143.001 308.412,143.090 307.693 C 143.179 306.974,143.177 305.894,143.086 305.293 C 142.995 304.692,142.922 305.280,142.924 306.600 M302.800 311.400 C 303.546 312.170,304.247 312.800,304.357 312.800 C 304.467 312.800,303.946 312.170,303.200 311.400 C 302.454 310.630,301.753 310.000,301.643 310.000 C 301.533 310.000,302.054 310.630,302.800 311.400 M273.578 312.700 L 272.200 314.200 273.700 312.822 C 274.525 312.063,275.200 311.388,275.200 311.322 C 275.200 311.016,274.862 311.304,273.578 312.700 M252.509 314.400 C 252.509 315.390,252.587 315.795,252.682 315.300 C 252.778 314.805,252.778 313.995,252.682 313.500 C 252.587 313.005,252.509 313.410,252.509 314.400 M252.501 319.800 C 252.505 320.680,252.587 320.993,252.683 320.495 C 252.779 319.998,252.775 319.278,252.675 318.895 C 252.575 318.513,252.496 318.920,252.501 319.800 M253.409 321.191 C 253.015 321.625,252.567 321.903,252.413 321.808 C 252.259 321.713,252.133 321.902,252.133 322.229 C 252.133 322.637,252.486 322.484,253.267 321.736 C 253.890 321.139,254.400 320.594,254.400 320.525 C 254.400 320.234,254.080 320.449,253.409 321.191 M98.900 337.487 C 99.505 337.578,100.495 337.578,101.100 337.487 C 101.705 337.395,101.210 337.320,100.000 337.320 C 98.790 337.320,98.295 337.395,98.900 337.487 M89.600 342.624 C 89.600 343.187,89.763 343.546,89.962 343.423 C 90.162 343.300,90.231 342.839,90.116 342.400 C 89.828 341.299,89.600 341.398,89.600 342.624 M373.731 375.000 C 373.733 376.540,373.805 377.121,373.892 376.291 C 373.979 375.461,373.977 374.201,373.889 373.491 C 373.800 372.781,373.729 373.460,373.731 375.000 " stroke="none" fill="#b0ccdc" fill-rule="evenodd"></path></g></svg>