<svg id="svg" version="1.1" xmlns="http://www.w3.org/2000/svg" xmlns:xlink="http://www.w3.org/1999/xlink" width="400" height="387.5" viewBox="0, 0, 400,387.5"><g id="svgg"><path id="path0" d="M130.319 17.656 C 125.402 18.980,122.001 22.391,119.712 28.295 C 118.658 31.012,119.004 39.999,120.298 43.527 C 123.504 52.269,131.470 60.857,148.199 73.603 C 153.167 77.389,152.786 77.387,157.558 73.639 C 180.831 55.362,187.857 45.257,186.061 32.647 C 183.933 17.707,166.917 13.787,155.233 25.544 C 152.819 27.973,153.349 28.088,149.547 24.314 C 143.573 18.383,136.595 15.966,130.319 17.656 M317.636 18.168 C 303.549 20.693,300.799 40.003,312.463 54.491 C 317.242 60.426,337.075 77.519,339.183 77.519 C 341.757 77.519,363.375 58.150,367.302 52.326 C 382.953 29.111,361.169 7.802,341.036 26.634 L 339.103 28.442 336.509 25.708 C 333.149 22.168,331.096 20.790,326.301 18.860 C 324.590 18.171,319.767 17.786,317.636 18.168 M135.006 22.916 C 138.420 24.669,138.833 26.787,136.184 28.954 C 135.193 29.764,133.580 31.290,132.599 32.346 C 127.752 37.559,127.640 37.611,125.709 35.562 C 120.268 29.786,127.974 19.303,135.006 22.916 M321.440 23.691 C 325.512 25.783,325.288 26.756,319.389 32.608 C 313.869 38.083,314.104 37.938,312.638 36.785 C 306.115 31.653,314.027 19.882,321.440 23.691 M37.303 110.702 C 26.128 113.738,22.151 127.703,28.727 140.812 C 31.319 145.981,39.415 154.464,49.221 162.288 C 53.330 165.567,55.233 167.032,57.288 168.503 L 59.731 170.252 61.164 169.106 C 61.952 168.476,63.382 167.364,64.341 166.634 C 85.228 150.743,92.992 140.513,93.017 128.849 C 93.053 111.498,75.043 105.904,61.506 119.062 L 59.641 120.875 56.274 117.474 C 50.473 111.615,43.328 109.065,37.303 110.702 M224.173 110.626 C 211.322 113.744,207.925 130.700,217.427 144.290 C 220.779 149.083,227.639 155.830,235.659 162.219 C 237.258 163.493,238.786 164.743,239.055 164.996 C 239.324 165.250,241.034 166.533,242.855 167.848 L 246.167 170.239 250.118 167.213 C 252.292 165.549,254.157 164.086,254.264 163.963 C 254.370 163.840,255.242 163.135,256.202 162.395 C 260.256 159.270,268.241 151.892,270.880 148.834 C 283.016 134.768,282.214 117.451,269.202 112.605 C 262.775 110.212,251.761 113.869,246.941 119.996 L 246.198 120.941 242.769 117.526 C 236.860 111.639,230.194 109.165,224.173 110.626 M41.624 116.042 C 45.124 117.505,45.660 119.517,43.159 121.803 C 40.334 124.385,38.695 126.030,36.971 128.011 C 35.094 130.171,33.963 130.364,32.484 128.779 C 26.996 122.894,34.152 112.921,41.624 116.042 M228.570 116.319 C 232.116 118.035,232.066 120.108,228.410 122.928 C 227.270 123.808,225.604 125.419,224.707 126.508 C 221.618 130.259,220.652 130.638,218.918 128.779 C 213.185 122.632,220.938 112.624,228.570 116.319 M129.633 203.823 C 117.909 207.825,115.139 226.565,124.610 237.791 C 131.105 245.488,136.805 250.703,148.849 259.967 L 152.931 263.107 157.183 259.802 C 177.942 243.665,184.669 235.451,186.057 224.543 C 188.471 205.557,169.361 197.733,154.901 211.787 C 152.696 213.931,153.540 214.180,149.419 210.168 C 143.111 204.028,135.852 201.700,129.633 203.823 M315.363 204.666 C 304.058 208.960,301.649 224.489,310.286 237.403 C 314.227 243.296,331.467 259.039,338.695 263.344 C 339.168 263.626,341.225 262.398,343.605 260.413 C 344.031 260.057,346.647 257.963,349.419 255.759 C 365.899 242.651,372.481 233.052,372.481 222.122 C 372.481 204.969,354.733 199.385,341.385 212.339 L 339.165 214.493 336.983 212.081 C 330.726 205.167,321.959 202.160,315.363 204.666 M134.197 208.599 C 138.093 209.767,139.022 212.409,136.337 214.687 C 135.431 215.456,133.289 217.539,131.577 219.317 C 127.874 223.161,126.948 223.363,125.103 220.730 C 120.980 214.848,127.229 206.512,134.197 208.599 M320.834 209.431 C 325.550 211.141,325.337 212.670,319.585 218.422 C 314.417 223.590,313.619 224.014,312.128 222.384 C 306.723 216.472,313.294 206.696,320.834 209.431 M36.994 296.310 C 26.239 299.708,22.322 313.020,28.383 325.581 C 31.649 332.351,41.357 342.055,55.563 352.750 C 60.094 356.161,59.150 356.376,66.892 350.173 C 86.581 334.399,92.993 325.651,93.017 314.526 C 93.054 296.966,75.070 291.382,61.400 304.710 L 59.428 306.633 58.421 305.313 C 53.023 298.236,43.527 294.246,36.994 296.310 M223.429 296.310 C 210.316 300.453,208.004 318.202,218.821 331.687 C 220.987 334.388,226.700 340.150,230.252 343.217 C 233.742 346.231,238.463 350.053,241.279 352.145 C 242.984 353.412,244.711 354.750,245.117 355.118 C 245.971 355.894,245.783 355.981,249.806 352.950 C 266.945 340.040,276.228 329.746,278.504 321.124 C 281.111 311.252,277.908 302.177,270.543 298.568 C 268.004 297.323,261.056 297.011,258.527 298.027 C 253.444 300.070,251.391 301.343,248.016 304.544 L 245.839 306.609 245.246 305.727 C 240.547 298.731,230.073 294.210,223.429 296.310 M42.656 301.949 C 43.574 302.440,44.961 304.226,44.961 304.916 C 44.961 305.543,35.088 315.504,34.467 315.504 C 31.690 315.504,29.667 309.740,31.176 306.128 C 31.997 304.164,34.898 301.649,36.690 301.349 C 37.509 301.212,38.353 301.055,38.566 301.001 C 39.098 300.866,41.805 301.494,42.656 301.949 M228.596 301.843 C 229.954 302.464,231.395 304.033,231.395 304.890 C 231.395 305.635,221.430 315.504,220.678 315.504 C 219.691 315.504,217.499 312.905,217.216 311.401 C 215.898 304.375,222.327 298.975,228.596 301.843 " stroke="none" fill="#d59cac" fill-rule="evenodd"></path><path id="path1" d="M0.000 193.798 L 0.000 387.597 200.000 387.597 L 400.000 387.597 400.000 193.798 L 400.000 0.000 200.000 0.000 L 0.000 0.000 0.000 193.798 M140.092 17.640 C 143.961 18.903,146.737 20.710,150.204 24.223 L 153.012 27.067 154.316 25.712 C 163.589 16.076,178.816 15.810,183.948 25.194 C 184.356 25.940,184.795 26.638,184.923 26.744 C 185.878 27.536,186.614 31.524,186.603 35.853 C 186.580 45.732,181.767 53.783,169.567 64.349 C 162.551 70.425,153.584 77.519,152.919 77.519 C 152.693 77.519,145.293 72.135,144.961 71.729 C 144.855 71.598,143.983 70.888,143.023 70.151 C 142.064 69.413,141.084 68.633,140.846 68.416 C 140.608 68.200,139.910 67.605,139.296 67.094 C 130.220 59.545,123.879 52.512,121.231 47.059 C 112.767 29.628,123.852 12.339,140.092 17.640 M325.471 18.039 C 327.940 18.834,331.828 20.809,333.197 21.964 C 335.239 23.686,336.620 25.015,337.898 26.490 L 339.167 27.957 341.192 25.968 C 352.933 14.438,369.378 17.476,372.665 31.783 C 375.625 44.660,367.050 57.527,343.993 74.808 C 342.715 75.766,341.234 76.943,340.703 77.422 C 339.312 78.678,338.719 78.380,332.169 73.141 C 331.849 72.884,330.802 72.073,329.844 71.337 C 317.352 61.752,308.932 52.318,306.234 44.882 C 300.397 28.795,311.362 13.495,325.471 18.039 M44.406 110.114 C 48.831 110.929,54.493 114.377,57.900 118.331 L 59.617 120.324 61.494 118.514 C 75.300 105.208,93.387 111.008,93.407 128.748 C 93.418 138.526,88.344 147.041,76.357 157.364 C 75.824 157.823,74.864 158.665,74.225 159.235 C 69.914 163.078,60.268 170.543,59.614 170.543 C 58.013 170.543,40.887 156.170,34.669 149.607 C 18.038 132.055,24.358 106.420,44.406 110.114 M230.840 110.109 C 233.268 110.551,237.794 112.558,239.703 114.040 C 242.062 115.872,243.960 117.683,244.959 119.056 L 245.992 120.477 247.512 118.905 C 259.744 106.249,276.798 109.712,279.716 125.443 C 281.775 136.540,274.843 148.005,257.721 161.822 C 257.193 162.248,255.907 163.295,254.863 164.147 C 253.819 165.000,251.391 166.854,249.467 168.266 L 245.969 170.835 242.461 168.147 C 240.532 166.669,238.691 165.252,238.371 164.997 C 238.050 164.743,237.004 163.927,236.045 163.184 C 225.642 155.118,216.739 145.544,214.053 139.535 C 212.291 135.592,211.628 132.485,211.628 128.172 C 211.628 115.781,219.799 108.099,230.840 110.109 M137.864 202.936 C 142.430 203.992,145.903 205.987,149.682 209.725 L 153.047 213.054 154.305 211.721 C 167.512 197.719,186.622 203.628,186.600 221.705 C 186.587 231.935,182.054 239.406,168.992 250.724 C 167.607 251.925,166.298 253.093,166.085 253.321 C 164.153 255.382,153.047 263.578,152.574 263.291 C 146.029 259.316,129.942 245.145,125.085 239.077 C 111.668 222.309,119.979 198.801,137.864 202.936 M326.381 204.269 C 329.990 205.481,333.129 207.522,336.387 210.774 L 339.248 213.629 340.845 212.101 C 353.221 200.262,369.293 203.156,372.665 217.829 C 375.282 229.218,368.964 240.222,351.550 254.600 C 344.012 260.825,339.875 263.953,339.184 263.953 C 338.413 263.953,330.187 257.702,323.643 252.142 C 314.982 244.783,307.823 235.930,306.136 230.492 C 300.735 213.079,311.416 199.244,326.381 204.269 M45.155 295.763 C 46.008 295.989,47.255 296.424,47.927 296.730 C 48.599 297.036,49.273 297.287,49.425 297.287 C 50.240 297.287,55.262 301.109,57.276 303.262 L 59.602 305.748 60.906 304.393 C 72.132 292.728,89.285 295.050,92.845 308.717 C 96.146 321.392,89.158 333.108,68.538 349.465 C 58.674 357.291,60.208 356.781,55.990 353.637 C 28.933 333.470,20.812 320.054,26.644 305.158 C 27.572 302.788,27.973 302.188,30.288 299.705 C 33.633 296.118,40.057 294.414,45.155 295.763 M232.071 295.899 C 236.361 297.041,240.099 299.409,243.848 303.359 L 246.030 305.658 248.026 303.802 C 265.087 287.950,285.829 300.964,278.414 322.868 C 277.539 325.451,275.475 329.709,274.844 330.233 C 274.716 330.339,273.881 331.386,272.989 332.558 C 270.224 336.195,260.180 345.634,254.431 350.000 C 253.168 350.959,251.215 352.483,250.090 353.386 C 245.990 356.678,246.030 356.686,239.527 351.444 C 239.204 351.183,237.111 349.496,234.876 347.695 C 228.446 342.514,220.666 335.098,218.385 331.977 C 217.762 331.124,217.163 330.339,217.053 330.233 C 216.573 329.766,214.800 326.821,214.254 325.581 C 206.593 308.189,216.464 291.744,232.071 295.899 " stroke="none" fill="#fcece4" fill-rule="evenodd"></path><path id="path2" d="M356.497 18.879 C 356.979 18.971,357.677 18.968,358.047 18.871 C 358.418 18.774,358.023 18.698,357.171 18.702 C 356.318 18.707,356.015 18.786,356.497 18.879 M149.806 24.031 C 150.639 24.884,151.407 25.581,151.514 25.581 C 151.621 25.581,151.026 24.884,150.194 24.031 C 149.361 23.178,148.593 22.481,148.486 22.481 C 148.379 22.481,148.974 23.178,149.806 24.031 M153.484 26.555 C 153.114 27.001,152.871 27.036,152.468 26.702 C 152.176 26.460,151.938 26.349,151.938 26.455 C 151.938 27.257,153.052 27.441,153.683 26.743 C 154.069 26.317,154.291 25.969,154.177 25.969 C 154.064 25.969,153.752 26.233,153.484 26.555 M118.333 34.884 C 118.333 36.056,118.406 36.536,118.495 35.950 C 118.583 35.363,118.583 34.404,118.495 33.818 C 118.406 33.232,118.333 33.711,118.333 34.884 M372.999 36.434 C 372.999 38.033,373.067 38.687,373.151 37.888 C 373.234 37.088,373.234 35.780,373.151 34.981 C 373.067 34.181,372.999 34.835,372.999 36.434 M364.320 56.492 L 362.984 57.946 364.438 56.610 C 365.791 55.367,366.070 55.039,365.774 55.039 C 365.709 55.039,365.055 55.693,364.320 56.492 M174.604 59.399 L 171.124 62.984 174.709 59.504 C 178.039 56.272,178.471 55.814,178.190 55.814 C 178.132 55.814,176.518 57.427,174.604 59.399 M315.504 58.721 C 316.227 59.467,316.906 60.078,317.013 60.078 C 317.119 60.078,316.615 59.467,315.891 58.721 C 315.168 57.975,314.489 57.364,314.383 57.364 C 314.276 57.364,314.781 57.975,315.504 58.721 M134.109 62.597 C 134.832 63.343,135.511 63.953,135.617 63.953 C 135.724 63.953,135.219 63.343,134.496 62.597 C 133.773 61.851,133.094 61.240,132.987 61.240 C 132.881 61.240,133.385 61.851,134.109 62.597 M356.181 64.632 L 354.845 66.085 356.298 64.750 C 357.651 63.506,357.930 63.178,357.634 63.178 C 357.569 63.178,356.915 63.832,356.181 64.632 M340.310 77.326 C 340.045 77.645,339.544 77.921,339.197 77.938 C 338.801 77.957,338.745 78.041,339.047 78.162 C 339.311 78.269,339.989 77.994,340.552 77.550 C 341.116 77.107,341.401 76.744,341.185 76.744 C 340.969 76.744,340.575 77.006,340.310 77.326 M39.833 109.971 C 40.529 110.057,41.576 110.055,42.158 109.967 C 42.741 109.878,42.171 109.808,40.891 109.810 C 39.612 109.812,39.136 109.885,39.833 109.971 M226.267 109.971 C 226.963 110.057,228.010 110.055,228.592 109.967 C 229.175 109.878,228.605 109.808,227.326 109.810 C 226.047 109.812,225.570 109.885,226.267 109.971 M216.646 114.244 L 215.310 115.698 216.764 114.362 C 218.116 113.119,218.395 112.791,218.099 112.791 C 218.035 112.791,217.380 113.445,216.646 114.244 M29.824 114.632 L 28.488 116.085 29.942 114.750 C 30.741 114.015,31.395 113.361,31.395 113.296 C 31.395 113.000,31.067 113.279,29.824 114.632 M87.209 114.462 C 87.209 114.529,87.776 115.096,88.469 115.722 L 89.729 116.860 88.590 115.601 C 87.529 114.427,87.209 114.163,87.209 114.462 M274.806 115.698 C 275.529 116.444,276.208 117.054,276.315 117.054 C 276.421 117.054,275.917 116.444,275.194 115.698 C 274.471 114.952,273.792 114.341,273.685 114.341 C 273.579 114.341,274.083 114.952,274.806 115.698 M242.829 117.054 C 243.879 118.120,244.826 118.992,244.932 118.992 C 245.039 118.992,244.267 118.120,243.217 117.054 C 242.167 115.988,241.221 115.116,241.114 115.116 C 241.008 115.116,241.780 115.988,242.829 117.054 M56.395 117.054 C 57.228 117.907,57.996 118.605,58.103 118.605 C 58.210 118.605,57.616 117.907,56.783 117.054 C 55.950 116.202,55.182 115.504,55.075 115.504 C 54.969 115.504,55.563 116.202,56.395 117.054 M24.926 128.101 C 24.928 129.380,25.001 129.856,25.087 129.160 C 25.173 128.463,25.172 127.417,25.083 126.834 C 24.995 126.252,24.924 126.822,24.926 128.101 M279.956 128.876 C 279.959 129.942,280.034 130.332,280.123 129.743 C 280.212 129.154,280.210 128.281,280.118 127.805 C 280.026 127.328,279.953 127.810,279.956 128.876 M32.558 147.408 C 32.558 147.475,33.125 148.042,33.818 148.668 L 35.078 149.806 33.939 148.547 C 32.878 147.372,32.558 147.109,32.558 147.408 M220.543 149.031 C 221.266 149.777,221.945 150.388,222.051 150.388 C 222.158 150.388,221.653 149.777,220.930 149.031 C 220.207 148.285,219.528 147.674,219.422 147.674 C 219.315 147.674,219.819 148.285,220.543 149.031 M226.744 155.233 C 227.467 155.979,228.146 156.589,228.253 156.589 C 228.359 156.589,227.855 155.979,227.132 155.233 C 226.409 154.486,225.730 153.876,225.623 153.876 C 225.517 153.876,226.021 154.486,226.744 155.233 M40.698 155.620 C 41.421 156.366,42.100 156.977,42.206 156.977 C 42.313 156.977,41.808 156.366,41.085 155.620 C 40.362 154.874,39.683 154.264,39.577 154.264 C 39.470 154.264,39.975 154.874,40.698 155.620 M133.436 202.604 C 134.025 202.693,134.897 202.690,135.374 202.598 C 135.850 202.506,135.368 202.434,134.302 202.436 C 133.236 202.439,132.846 202.515,133.436 202.604 M319.477 203.378 C 320.063 203.467,321.022 203.467,321.609 203.378 C 322.195 203.290,321.715 203.217,320.543 203.217 C 319.370 203.217,318.891 203.290,319.477 203.378 M356.304 204.929 C 356.893 205.018,357.765 205.016,358.242 204.924 C 358.718 204.832,358.236 204.759,357.171 204.762 C 356.105 204.765,355.715 204.840,356.304 204.929 M181.589 208.527 C 182.422 209.380,183.190 210.078,183.297 210.078 C 183.403 210.078,182.809 209.380,181.977 208.527 C 181.144 207.674,180.376 206.977,180.269 206.977 C 180.162 206.977,180.756 207.674,181.589 208.527 M148.062 208.261 C 148.062 208.328,148.629 208.894,149.322 209.521 L 150.581 210.659 149.443 209.399 C 148.382 208.225,148.062 207.961,148.062 208.261 M367.054 208.261 C 367.054 208.328,367.621 208.894,368.314 209.521 L 369.574 210.659 368.435 209.399 C 367.374 208.225,367.054 207.961,367.054 208.261 M336.047 210.659 C 336.770 211.405,337.449 212.016,337.555 212.016 C 337.662 212.016,337.157 211.405,336.434 210.659 C 335.711 209.913,335.032 209.302,334.925 209.302 C 334.819 209.302,335.323 209.913,336.047 210.659 M340.883 212.024 C 339.926 213.004,339.142 213.499,338.770 213.357 C 338.291 213.175,338.272 213.227,338.670 213.628 C 339.068 214.029,339.509 213.776,340.990 212.294 C 341.996 211.288,342.726 210.465,342.612 210.465 C 342.499 210.465,341.721 211.166,340.883 212.024 M118.337 220.736 C 118.339 222.016,118.412 222.492,118.498 221.795 C 118.584 221.099,118.582 220.052,118.494 219.470 C 118.406 218.887,118.335 219.457,118.337 220.736 M372.995 222.287 C 372.997 223.779,373.067 224.342,373.151 223.538 C 373.235 222.734,373.234 221.513,373.148 220.825 C 373.062 220.137,372.994 220.795,372.995 222.287 M304.741 224.419 C 304.741 225.165,304.821 225.470,304.918 225.097 C 305.016 224.724,305.016 224.113,304.918 223.740 C 304.821 223.367,304.741 223.672,304.741 224.419 M127.519 241.967 C 127.519 242.026,128.871 243.377,130.523 244.971 L 133.527 247.868 130.630 244.864 C 127.939 242.074,127.519 241.684,127.519 241.967 M361.422 245.446 L 359.109 247.868 361.531 245.555 C 362.863 244.282,363.953 243.192,363.953 243.132 C 363.953 242.846,363.571 243.195,361.422 245.446 M88.566 301.550 C 89.399 302.403,90.167 303.101,90.274 303.101 C 90.380 303.101,89.786 302.403,88.953 301.550 C 88.121 300.698,87.352 300.000,87.246 300.000 C 87.139 300.000,87.733 300.698,88.566 301.550 M61.240 304.070 C 60.299 305.029,59.616 305.814,59.722 305.814 C 59.829 305.814,60.686 305.029,61.628 304.070 C 62.569 303.110,63.252 302.326,63.146 302.326 C 63.039 302.326,62.182 303.110,61.240 304.070 M247.075 304.748 L 245.543 306.395 247.190 304.863 C 248.722 303.438,249.015 303.101,248.722 303.101 C 248.659 303.101,247.917 303.842,247.075 304.748 M24.926 313.372 C 24.928 314.651,25.001 315.128,25.087 314.431 C 25.173 313.734,25.172 312.688,25.083 312.105 C 24.995 311.523,24.924 312.093,24.926 313.372 M279.951 314.341 C 279.951 315.300,280.026 315.693,280.119 315.213 C 280.211 314.734,280.211 313.949,280.119 313.469 C 280.026 312.989,279.951 313.382,279.951 314.341 M268.016 337.694 L 264.147 341.667 268.120 337.798 C 270.305 335.670,272.093 333.882,272.093 333.825 C 272.093 333.545,271.609 334.004,268.016 337.694 M37.209 337.791 C 39.226 339.816,40.963 341.473,41.070 341.473 C 41.177 341.473,39.614 339.816,37.597 337.791 C 35.580 335.766,33.843 334.109,33.736 334.109 C 33.630 334.109,35.193 335.766,37.209 337.791 M220.543 334.603 C 220.543 334.661,221.894 336.013,223.547 337.607 L 226.550 340.504 223.653 337.500 C 220.962 334.710,220.543 334.319,220.543 334.603 M82.734 336.531 L 81.202 338.178 82.849 336.646 C 84.381 335.221,84.674 334.884,84.381 334.884 C 84.318 334.884,83.576 335.625,82.734 336.531 M261.022 344.283 L 259.884 345.543 261.143 344.404 C 262.318 343.343,262.581 343.023,262.282 343.023 C 262.215 343.023,261.648 343.590,261.022 344.283 " stroke="none" fill="#f4d8d3" fill-rule="evenodd"></path><path id="path3" d="M133.629 16.941 C 134.111 17.034,134.808 17.030,135.179 16.933 C 135.550 16.836,135.155 16.760,134.302 16.764 C 133.450 16.769,133.146 16.848,133.629 16.941 M319.477 17.719 C 320.063 17.808,321.022 17.808,321.609 17.719 C 322.195 17.631,321.715 17.558,320.543 17.558 C 319.370 17.558,318.891 17.631,319.477 17.719 M336.047 25.000 C 336.770 25.746,337.449 26.357,337.555 26.357 C 337.662 26.357,337.157 25.746,336.434 25.000 C 335.711 24.254,335.032 23.643,334.925 23.643 C 334.819 23.643,335.323 24.254,336.047 25.000 M339.908 27.343 C 339.634 27.673,339.133 27.837,338.794 27.708 C 338.298 27.519,338.273 27.569,338.667 27.966 C 339.062 28.364,339.321 28.293,340.013 27.601 C 340.484 27.130,340.765 26.744,340.637 26.744 C 340.510 26.744,340.181 27.014,339.908 27.343 M304.767 35.659 C 304.767 36.831,304.840 37.311,304.929 36.725 C 305.018 36.139,305.018 35.179,304.929 34.593 C 304.840 34.007,304.767 34.486,304.767 35.659 M130.039 58.527 C 131.520 60.019,132.818 61.240,132.925 61.240 C 133.032 61.240,131.907 60.019,130.426 58.527 C 128.946 57.035,127.647 55.814,127.540 55.814 C 127.434 55.814,128.558 57.035,130.039 58.527 M360.839 59.981 L 358.721 62.209 360.950 60.091 C 362.175 58.926,363.178 57.923,363.178 57.862 C 363.178 57.574,362.808 57.910,360.839 59.981 M76.846 111.518 C 77.436 111.608,78.308 111.605,78.784 111.513 C 79.261 111.421,78.779 111.348,77.713 111.351 C 76.647 111.354,76.257 111.429,76.846 111.518 M263.281 111.518 C 263.870 111.608,264.742 111.605,265.219 111.513 C 265.695 111.421,265.213 111.348,264.147 111.351 C 263.081 111.354,262.691 111.429,263.281 111.518 M61.028 119.089 L 59.496 120.736 61.143 119.204 C 62.675 117.779,62.969 117.442,62.676 117.442 C 62.612 117.442,61.871 118.183,61.028 119.089 M247.462 119.089 L 245.930 120.736 247.578 119.204 C 249.109 117.779,249.403 117.442,249.110 117.442 C 249.046 117.442,248.305 118.183,247.462 119.089 M211.758 127.907 C 211.758 129.506,211.827 130.160,211.910 129.360 C 211.994 128.561,211.994 127.253,211.910 126.453 C 211.827 125.654,211.758 126.308,211.758 127.907 M93.154 128.682 C 93.154 130.281,93.222 130.935,93.306 130.136 C 93.389 129.336,93.389 128.028,93.306 127.229 C 93.222 126.429,93.154 127.083,93.154 128.682 M279.577 128.876 C 279.580 130.155,279.652 130.632,279.738 129.935 C 279.825 129.238,279.823 128.192,279.734 127.609 C 279.646 127.027,279.575 127.597,279.577 128.876 M268.992 150.969 C 268.051 151.928,267.368 152.713,267.474 152.713 C 267.581 152.713,268.438 151.928,269.380 150.969 C 270.321 150.010,271.004 149.225,270.898 149.225 C 270.791 149.225,269.934 150.010,268.992 150.969 M81.575 152.035 L 79.651 154.070 81.686 152.146 C 82.805 151.088,83.721 150.173,83.721 150.111 C 83.721 149.822,83.362 150.144,81.575 152.035 M37.403 152.326 C 38.453 153.391,39.399 154.264,39.506 154.264 C 39.612 154.264,38.841 153.391,37.791 152.326 C 36.741 151.260,35.795 150.388,35.688 150.388 C 35.581 150.388,36.353 151.260,37.403 152.326 M223.627 152.035 C 224.578 153.047,225.406 153.876,225.468 153.876 C 225.759 153.876,225.452 153.528,223.740 151.922 L 221.899 150.194 223.627 152.035 M265.483 154.554 L 264.147 156.008 265.601 154.672 C 266.954 153.429,267.232 153.101,266.936 153.101 C 266.872 153.101,266.218 153.755,265.483 154.554 M154.052 212.112 L 152.519 213.760 154.167 212.228 C 155.699 210.803,155.992 210.465,155.699 210.465 C 155.635 210.465,154.894 211.206,154.052 212.112 M304.767 221.318 C 304.767 222.490,304.840 222.970,304.929 222.384 C 305.018 221.797,305.018 220.838,304.929 220.252 C 304.840 219.666,304.767 220.145,304.767 221.318 M172.269 247.384 L 170.736 249.031 172.384 247.499 C 173.916 246.074,174.209 245.736,173.916 245.736 C 173.853 245.736,173.111 246.478,172.269 247.384 M40.213 295.622 C 40.693 295.715,41.478 295.715,41.957 295.622 C 42.437 295.530,42.045 295.454,41.085 295.454 C 40.126 295.454,39.734 295.530,40.213 295.622 M226.647 295.622 C 227.127 295.715,227.912 295.715,228.391 295.622 C 228.871 295.530,228.479 295.454,227.519 295.454 C 226.560 295.454,226.168 295.530,226.647 295.622 M211.758 313.566 C 211.758 315.165,211.827 315.819,211.910 315.019 C 211.994 314.220,211.994 312.912,211.910 312.112 C 211.827 311.313,211.758 311.967,211.758 313.566 M93.154 314.341 C 93.154 315.940,93.222 316.594,93.306 315.795 C 93.389 314.995,93.389 313.687,93.306 312.888 C 93.222 312.088,93.154 312.742,93.154 314.341 M279.581 314.341 C 279.581 315.727,279.652 316.294,279.738 315.601 C 279.824 314.908,279.824 313.774,279.738 313.081 C 279.652 312.389,279.581 312.955,279.581 314.341 " stroke="none" fill="#ebc6c7" fill-rule="evenodd"></path><path id="path4" d="M170.063 18.491 C 170.545 18.584,171.242 18.580,171.613 18.483 C 171.984 18.386,171.589 18.310,170.736 18.315 C 169.884 18.319,169.581 18.398,170.063 18.491 M309.865 22.190 L 308.333 23.837 309.981 22.305 C 311.513 20.880,311.806 20.543,311.513 20.543 C 311.449 20.543,310.708 21.284,309.865 22.190 M128.777 23.096 C 123.714 25.310,122.127 31.759,125.709 35.562 C 127.640 37.611,127.752 37.559,132.599 32.346 C 133.580 31.290,135.193 29.764,136.184 28.954 C 140.633 25.315,134.604 20.547,128.777 23.096 M149.419 24.031 C 150.251 24.884,151.020 25.581,151.126 25.581 C 151.233 25.581,150.639 24.884,149.806 24.031 C 148.974 23.178,148.205 22.481,148.098 22.481 C 147.992 22.481,148.586 23.178,149.419 24.031 M314.667 24.039 C 309.708 26.659,308.602 33.610,312.638 36.785 C 314.104 37.938,313.869 38.083,319.389 32.608 C 324.779 27.260,325.066 26.718,323.353 25.120 C 321.118 23.035,317.435 22.577,314.667 24.039 M155.208 25.291 L 154.070 26.550 155.329 25.412 C 156.022 24.786,156.589 24.219,156.589 24.152 C 156.589 23.853,156.269 24.116,155.208 25.291 M118.740 34.884 C 118.740 36.696,118.807 37.437,118.888 36.531 C 118.970 35.625,118.970 34.142,118.888 33.236 C 118.807 32.330,118.740 33.072,118.740 34.884 M372.605 36.434 C 372.605 37.820,372.675 38.387,372.761 37.694 C 372.847 37.001,372.847 35.867,372.761 35.174 C 372.675 34.482,372.605 35.048,372.605 36.434 M186.136 38.372 C 186.136 39.118,186.216 39.423,186.314 39.050 C 186.411 38.677,186.411 38.067,186.314 37.694 C 186.216 37.321,186.136 37.626,186.136 38.372 M363.545 56.880 L 362.209 58.333 363.663 56.998 C 365.016 55.754,365.294 55.426,364.999 55.426 C 364.934 55.426,364.280 56.080,363.545 56.880 M174.419 59.109 C 172.830 60.707,171.618 62.016,171.725 62.016 C 171.831 62.016,173.218 60.707,174.806 59.109 C 176.394 57.510,177.607 56.202,177.500 56.202 C 177.393 56.202,176.007 57.510,174.419 59.109 M316.473 59.302 C 317.739 60.581,318.861 61.628,318.968 61.628 C 319.075 61.628,318.126 60.581,316.860 59.302 C 315.595 58.023,314.472 56.977,314.365 56.977 C 314.259 56.977,315.207 58.023,316.473 59.302 M133.721 61.822 C 134.444 62.568,135.123 63.178,135.230 63.178 C 135.336 63.178,134.832 62.568,134.109 61.822 C 133.385 61.076,132.706 60.465,132.600 60.465 C 132.493 60.465,132.998 61.076,133.721 61.822 M356.977 63.372 C 356.035 64.331,355.352 65.116,355.459 65.116 C 355.565 65.116,356.423 64.331,357.364 63.372 C 358.306 62.413,358.989 61.628,358.882 61.628 C 358.776 61.628,357.918 62.413,356.977 63.372 M320.543 62.912 C 320.543 62.979,321.109 63.546,321.802 64.172 L 323.062 65.310 321.924 64.050 C 320.862 62.876,320.543 62.613,320.543 62.912 M168.774 64.438 L 167.636 65.698 168.895 64.559 C 170.070 63.498,170.333 63.178,170.034 63.178 C 169.967 63.178,169.400 63.745,168.774 64.438 M216.646 114.632 L 215.310 116.085 216.764 114.750 C 218.116 113.506,218.395 113.178,218.099 113.178 C 218.035 113.178,217.380 113.832,216.646 114.632 M35.853 116.042 C 30.554 118.357,28.833 124.865,32.484 128.779 C 33.963 130.364,35.094 130.171,36.971 128.011 C 38.695 126.030,40.334 124.385,43.159 121.803 C 45.231 119.909,45.361 119.222,43.937 117.686 C 42.020 115.619,38.473 114.898,35.853 116.042 M56.008 117.054 C 56.840 117.907,57.609 118.605,57.715 118.605 C 57.822 118.605,57.228 117.907,56.395 117.054 C 55.563 116.202,54.794 115.504,54.688 115.504 C 54.581 115.504,55.175 116.202,56.008 117.054 M222.659 115.916 C 217.319 117.469,215.192 124.783,218.918 128.779 C 220.652 130.638,221.618 130.259,224.707 126.508 C 225.604 125.419,227.270 123.808,228.410 122.928 C 231.161 120.807,231.663 119.860,230.862 118.310 C 229.714 116.090,225.894 114.976,222.659 115.916 M242.442 117.054 C 243.275 117.907,244.043 118.605,244.150 118.605 C 244.256 118.605,243.662 117.907,242.829 117.054 C 241.997 116.202,241.228 115.504,241.122 115.504 C 241.015 115.504,241.609 116.202,242.442 117.054 M25.299 127.907 C 25.299 128.866,25.375 129.259,25.467 128.779 C 25.560 128.299,25.560 127.515,25.467 127.035 C 25.375 126.555,25.299 126.948,25.299 127.907 M220.736 148.837 C 221.569 149.690,222.338 150.388,222.444 150.388 C 222.551 150.388,221.957 149.690,221.124 148.837 C 220.291 147.984,219.523 147.287,219.416 147.287 C 219.310 147.287,219.904 147.984,220.736 148.837 M226.550 154.651 C 227.383 155.504,228.152 156.202,228.258 156.202 C 228.365 156.202,227.771 155.504,226.938 154.651 C 226.105 153.798,225.337 153.101,225.230 153.101 C 225.124 153.101,225.718 153.798,226.550 154.651 M41.085 155.620 C 41.808 156.366,42.487 156.977,42.594 156.977 C 42.701 156.977,42.196 156.366,41.473 155.620 C 40.750 154.874,40.071 154.264,39.964 154.264 C 39.858 154.264,40.362 154.874,41.085 155.620 M263.354 156.298 L 261.822 157.946 263.469 156.414 C 264.375 155.571,265.116 154.830,265.116 154.766 C 265.116 154.473,264.779 154.766,263.354 156.298 M76.914 156.298 L 75.775 157.558 77.035 156.420 C 77.728 155.794,78.295 155.227,78.295 155.160 C 78.295 154.861,77.975 155.124,76.914 156.298 M133.629 202.987 C 134.111 203.080,134.808 203.077,135.179 202.979 C 135.550 202.882,135.155 202.807,134.302 202.811 C 133.450 202.815,133.146 202.895,133.629 202.987 M319.671 203.762 C 320.150 203.854,320.935 203.854,321.415 203.762 C 321.894 203.670,321.502 203.594,320.543 203.594 C 319.583 203.594,319.191 203.670,319.671 203.762 M169.864 204.541 C 170.451 204.630,171.410 204.630,171.996 204.541 C 172.582 204.452,172.103 204.380,170.930 204.380 C 169.758 204.380,169.278 204.452,169.864 204.541 M123.425 207.461 L 122.287 208.721 123.547 207.583 C 124.721 206.521,124.984 206.202,124.685 206.202 C 124.618 206.202,124.051 206.768,123.425 207.461 M180.233 207.486 C 180.233 207.552,180.799 208.119,181.492 208.745 L 182.752 209.884 181.614 208.624 C 180.552 207.450,180.233 207.186,180.233 207.486 M149.419 210.078 C 150.684 211.357,151.807 212.403,151.914 212.403 C 152.020 212.403,151.072 211.357,149.806 210.078 C 148.540 208.798,147.418 207.752,147.311 207.752 C 147.204 207.752,148.153 208.798,149.419 210.078 M129.651 208.663 C 124.642 210.039,122.183 216.564,125.103 220.730 C 126.948 223.363,127.874 223.161,131.577 219.317 C 133.289 217.539,135.431 215.456,136.337 214.687 C 140.337 211.292,135.604 207.028,129.651 208.663 M366.667 208.261 C 366.667 208.328,367.234 208.894,367.926 209.521 L 369.186 210.659 368.048 209.399 C 366.986 208.225,366.667 207.961,366.667 208.261 M315.310 209.646 C 309.965 212.108,308.413 218.320,312.128 222.384 C 313.619 224.014,314.417 223.590,319.585 218.422 C 324.823 213.184,325.066 212.692,323.257 210.985 C 321.067 208.918,318.009 208.403,315.310 209.646 M335.643 210.562 C 336.593 211.575,337.422 212.403,337.484 212.403 C 337.775 212.403,337.467 212.055,335.756 210.449 L 333.915 208.721 335.643 210.562 M340.813 212.470 C 339.370 213.913,339.119 214.031,338.493 213.558 C 337.820 213.049,337.820 213.058,338.473 213.771 C 339.141 214.499,339.198 214.474,340.988 212.684 C 341.995 211.677,342.732 210.853,342.625 210.853 C 342.518 210.853,341.703 211.581,340.813 212.470 M118.742 220.736 C 118.741 222.655,118.807 223.489,118.888 222.589 C 118.969 221.690,118.970 220.120,118.890 219.101 C 118.810 218.082,118.743 218.818,118.742 220.736 M186.136 218.992 C 186.136 219.738,186.216 220.044,186.314 219.671 C 186.411 219.297,186.411 218.687,186.314 218.314 C 186.216 217.941,186.136 218.246,186.136 218.992 M372.601 222.287 C 372.603 223.566,372.675 224.042,372.762 223.346 C 372.848 222.649,372.846 221.603,372.758 221.020 C 372.669 220.438,372.599 221.008,372.601 222.287 M186.136 224.031 C 186.136 224.777,186.216 225.082,186.314 224.709 C 186.411 224.336,186.411 223.726,186.314 223.353 C 186.216 222.980,186.136 223.285,186.136 224.031 M360.465 245.930 C 358.877 247.529,357.665 248.837,357.771 248.837 C 357.878 248.837,359.265 247.529,360.853 245.930 C 362.441 244.331,363.653 243.023,363.546 243.023 C 363.440 243.023,362.053 244.331,360.465 245.930 M131.783 245.930 C 132.941 247.103,133.975 248.062,134.082 248.062 C 134.189 248.062,133.328 247.103,132.171 245.930 C 131.013 244.758,129.978 243.798,129.871 243.798 C 129.765 243.798,130.625 244.758,131.783 245.930 M169.937 249.322 L 168.798 250.581 170.058 249.443 C 171.232 248.382,171.496 248.062,171.197 248.062 C 171.130 248.062,170.563 248.629,169.937 249.322 M76.846 297.177 C 77.436 297.266,78.308 297.264,78.784 297.172 C 79.261 297.080,78.779 297.007,77.713 297.010 C 76.647 297.013,76.257 297.088,76.846 297.177 M263.281 297.177 C 263.870 297.266,264.742 297.264,265.219 297.172 C 265.695 297.080,265.213 297.007,264.147 297.010 C 263.081 297.013,262.691 297.088,263.281 297.177 M38.566 301.001 C 38.353 301.055,37.509 301.212,36.690 301.349 C 34.898 301.649,31.997 304.164,31.176 306.128 C 29.667 309.740,31.690 315.504,34.467 315.504 C 35.088 315.504,44.961 305.543,44.961 304.916 C 44.961 303.094,40.670 300.467,38.566 301.001 M223.182 301.361 C 218.793 302.532,216.330 306.677,217.216 311.401 C 217.499 312.905,219.691 315.504,220.678 315.504 C 221.430 315.504,231.395 305.635,231.395 304.890 C 231.395 302.453,226.680 300.427,223.182 301.361 M61.219 304.554 L 59.884 306.008 61.337 304.672 C 62.690 303.429,62.969 303.101,62.673 303.101 C 62.608 303.101,61.954 303.755,61.219 304.554 M243.023 303.222 C 243.023 303.289,243.590 303.856,244.283 304.482 L 245.543 305.620 244.404 304.360 C 243.343 303.186,243.023 302.923,243.023 303.222 M247.844 304.360 L 246.705 305.620 247.965 304.482 C 249.139 303.421,249.403 303.101,249.104 303.101 C 249.037 303.101,248.470 303.668,247.844 304.360 M25.299 313.566 C 25.299 314.525,25.375 314.918,25.467 314.438 C 25.560 313.958,25.560 313.173,25.467 312.694 C 25.375 312.214,25.299 312.607,25.299 313.566 M37.209 337.403 C 39.012 339.215,40.574 340.698,40.681 340.698 C 40.787 340.698,39.400 339.215,37.597 337.403 C 35.794 335.591,34.232 334.109,34.126 334.109 C 34.019 334.109,35.407 335.591,37.209 337.403 M83.121 335.756 L 81.589 337.403 83.236 335.871 C 84.768 334.446,85.062 334.109,84.769 334.109 C 84.705 334.109,83.964 334.850,83.121 335.756 M267.241 338.081 L 263.372 342.054 267.345 338.186 C 269.530 336.058,271.318 334.270,271.318 334.213 C 271.318 333.932,270.834 334.391,267.241 338.081 M223.450 337.209 C 224.715 338.488,225.838 339.535,225.945 339.535 C 226.051 339.535,225.103 338.488,223.837 337.209 C 222.571 335.930,221.449 334.884,221.342 334.884 C 221.236 334.884,222.184 335.930,223.450 337.209 M78.470 340.407 L 76.938 342.054 78.585 340.522 C 80.117 339.097,80.411 338.760,80.117 338.760 C 80.054 338.760,79.313 339.501,78.470 340.407 " stroke="none" fill="#e4bcbc" fill-rule="evenodd"></path></g></svg>