<?xml version="1.0" encoding="UTF-8"?>
<svg id="_레이어_1" data-name="레이어 1" xmlns="http://www.w3.org/2000/svg" viewBox="0 0 430 450">
  <defs>
    <style>
      .cls-1 {
        fill: #f1f1f1;
      }

      .cls-1, .cls-2 {
        stroke: #231815;
        stroke-linejoin: round;
        stroke-width: 1.15px;
      }
    </style>
  </defs>
  <path class="cls-2" d="M215.59,271.26c7.3,0,13.77,3.52,17.85,8.93l-5.5-32.71c0-3.29-2.67-5.96-5.96-5.96h-12.82c-3.29,0-5.96,2.67-5.96,5.96l-5.44,32.35c4.15-5.21,10.68-8.57,17.81-8.57Z"/>
  <path class="cls-1" d="M202.77,291.5h25.61c3.29,0,5.96-2.67,5.96-5.96l-.9-5.35c-4.08-5.42-10.55-8.93-17.85-8.93s-13.67,3.36-17.81,8.57l-.96,5.71c0,3.29,2.67,5.96,5.96,5.96Z"/>
</svg>