<?xml version="1.0" encoding="UTF-8"?>
<svg id="_레이어_1" data-name="레이어 1" xmlns="http://www.w3.org/2000/svg" viewBox="0 0 430 450">
  <defs>
    <style>
      .cls-1 {
        fill: #f1f1f1;
      }

      .cls-1, .cls-2 {
        stroke: #231815;
        stroke-linejoin: round;
        stroke-width: 1.15px;
      }
    </style>
  </defs>
  <g>
    <path class="cls-2" d="M229.1,257.3c.41,1.53,.04,3.22-1.16,4.42-1.79,1.79-4.71,1.79-6.5,0-1.45-1.45-1.71-3.63-.81-5.36h-1.98c.9,1.73,.64,3.91-.81,5.36-1.79,1.79-4.71,1.79-6.5,0-1.45-1.45-1.71-3.63-.81-5.36h-1.98c.9,1.73,.64,3.91-.81,5.36-1.79,1.79-4.71,1.79-6.5,0-1.22-1.22-1.58-2.94-1.14-4.49-4.15,1.72-7.06,5.8-7.06,10.57,0,6.32,5.12,11.44,11.44,11.44h20.09c6.32,0,11.44-5.12,11.44-11.44,0-4.71-2.84-8.74-6.9-10.5Z"/>
    <path class="cls-1" d="M201.23,261.72c1.79,1.79,4.71,1.79,6.5,0,1.45-1.45,1.71-3.63,.81-5.36h-4.08c-1.55,0-3.03,.31-4.38,.87-.44,1.55-.08,3.27,1.14,4.49Z"/>
    <path class="cls-1" d="M211.34,261.72c1.79,1.79,4.71,1.79,6.5,0,1.45-1.45,1.71-3.63,.81-5.36h-8.12c-.9,1.73-.64,3.91,.81,5.36Z"/>
    <path class="cls-1" d="M221.44,261.72c1.79,1.79,4.71,1.79,6.5,0,1.2-1.2,1.57-2.89,1.16-4.42-1.39-.6-2.92-.94-4.54-.94h-3.93c-.9,1.73-.64,3.91,.81,5.36Z"/>
  </g>
  <g>
    <path class="cls-1" d="M206.72,284.05c4.31,4.31,11.29,4.31,15.59,0,3.49-3.49,4.1-8.7,1.94-12.86h-19.48c-2.16,4.15-1.54,9.37,1.94,12.86Z"/>
    <line class="cls-1" x1="214.36" y1="271.2" x2="214.36" y2="280.84"/>
  </g>
</svg>