<?xml version="1.0" encoding="UTF-8"?>
<svg id="_레이어_1" data-name="레이어 1" xmlns="http://www.w3.org/2000/svg" viewBox="0 0 430 450">
  <defs>
    <style>
      .cls-1 {
        fill: #231815;
      }

      .cls-1, .cls-2 {
        stroke: #231815;
        stroke-linejoin: round;
        stroke-width: 1.15px;
      }

      .cls-2 {
        fill: #f1f1f1;
      }
    </style>
  </defs>
  <rect class="cls-1" x="180.98" y="252.71" width="68.02" height="36.21" rx="4.25" ry="4.25"/>
  <path class="cls-2" d="M193.98,261.19c2.84,2.84,7.45,2.84,10.29,0,2.3-2.3,2.7-5.74,1.28-8.48h-12.85c-1.42,2.74-1.02,6.18,1.28,8.48Z"/>
  <path class="cls-2" d="M209.96,261.19c2.84,2.84,7.45,2.84,10.29,0,2.3-2.3,2.7-5.74,1.28-8.48h-12.85c-1.42,2.74-1.02,6.18,1.28,8.48Z"/>
  <path class="cls-2" d="M225.95,261.19c2.84,2.84,7.45,2.84,10.29,0,2.3-2.3,2.7-5.74,1.28-8.48h-12.85c-1.42,2.74-1.02,6.18,1.28,8.48Z"/>
</svg>