<?xml version="1.0" encoding="UTF-8"?>
<svg id="_레이어_2" data-name="레이어 2" xmlns="http://www.w3.org/2000/svg" viewBox="0 0 102.45 67.16">
  <defs>
    <style>
      .cls-1, .cls-2, .cls-3 {
        stroke: #231815;
        stroke-linejoin: round;
        stroke-width: 1.15px;
      }

      .cls-1, .cls-3 {
        fill: #fff;
      }

      .cls-2 {
        fill: #231815;
      }

      .cls-3 {
        stroke-linecap: round;
      }
    </style>
  </defs>
  <g id="_레이어_1-2" data-name="레이어 1">
    <path class="cls-2" d="M73.15,4.32s11.24-7.87,16.35-.78l11.2,21.32c1.75,3.34,1.65,7.63-.95,10.36-4.46,4.68-12.25,4.85-16.95-2.95l-9.64-27.94Z"/>
    <path class="cls-2" d="M29.3,4.32s-11.24-7.87-16.35-.78L1.76,24.85C0,28.19,.11,32.48,2.71,35.21c4.46,4.68,12.25,4.85,16.95-2.95L29.3,4.32Z"/>
    <path class="cls-1" d="M66.23,43.65c-3.64-4.93-3.64-11.84,0-16.77,4.03-5.46,10.85-7.09,16.56-4.92v-1.42c0-9.39-7.61-17.01-17.01-17.01h-29.04c-9.39,0-17.01,7.61-17.01,17.01v1.42c5.72-2.16,12.54-.53,16.56,4.92,3.64,4.93,3.64,11.84,0,16.77-4.03,5.46-10.85,7.09-16.56,4.92v1.01c0,9.39,7.61,17.01,17.01,17.01h29.04c9.39,0,17.01-7.61,17.01-17.01v-1.01c-5.72,2.16-12.54,.53-16.56-4.92Z"/>
    <path class="cls-1" d="M34.85,45.33c5.56-5.56,5.56-14.58,0-20.14-4.09-4.09-10.04-5.16-15.12-3.24v26.62c5.08,1.92,11.03,.85,15.12-3.24Z"/>
    <path class="cls-1" d="M67.68,25.19c-5.56,5.56-5.56,14.58,0,20.14,4.09,4.09,10.04,5.16,15.12,3.24V21.96c-5.08-1.92-11.03-.85-15.12,3.24Z"/>
    <circle class="cls-1" cx="35.93" cy="24.19" r="8.07"/>
    <circle class="cls-1" cx="66.98" cy="24.19" r="8.07"/>
    <circle class="cls-2" cx="51.26" cy="25.72" r="4.7"/>
    <path class="cls-1" d="M44.68,47.68c3.59,3.59,9.41,3.59,13,0,2.91-2.91,3.42-7.26,1.62-10.72h-16.24c-1.8,3.46-1.29,7.81,1.62,10.72Z"/>
    <line class="cls-3" x1="51.05" y1="36.96" x2="51.05" y2="45"/>
    <line class="cls-3" x1="39.95" y1="24.19" x2="31.91" y2="24.19"/>
    <line class="cls-3" x1="71" y1="24.19" x2="62.96" y2="24.19"/>
  </g>
</svg>