<?xml version="1.0" encoding="UTF-8"?>
<svg xmlns="http://www.w3.org/2000/svg" xmlns:xlink="http://www.w3.org/1999/xlink" width="103px" height="150px" viewBox="0 0 273 396" version="1.1">
<g id="surface1">
<path style="fill-rule:nonzero;fill:rgb(100%,100%,100%);fill-opacity:1;stroke-width:0.25;stroke-linecap:butt;stroke-linejoin:round;stroke:rgb(100%,100%,100%);stroke-opacity:1;stroke-miterlimit:4;" d="M 162.910797 365.616121 C 164.590853 367.298298 165.41916 369.309088 165.41916 371.671961 C 165.41916 374.02701 164.590853 376.0378 162.910797 377.696505 C 161.23074 379.378683 159.199044 380.208036 156.831336 380.208036 C 154.463628 380.208036 152.463189 379.378683 150.783132 377.696505 C 149.103075 376.0378 148.266954 374.011362 148.266954 371.671961 L 148.266954 351.431057 C 148.266954 351.258927 148.321654 351.141566 148.438867 351.008557 C 148.563894 350.883371 148.681107 350.836427 148.860834 350.836427 C 149.009305 350.836427 149.149961 350.891195 149.251545 351.008557 C 149.368759 351.133742 149.423458 351.251103 149.423458 351.431057 L 149.423458 367.400012 C 151.197285 364.536397 153.690021 363.096766 156.83915 363.096766 C 159.206858 363.096766 161.23074 363.949591 162.918611 365.608296 Z M 162.08249 376.898449 C 163.543748 375.458818 164.278285 373.698399 164.278285 371.679785 C 164.278285 369.661172 163.551563 367.900753 162.08249 366.461122 C 160.63686 364.998018 158.878661 364.29385 156.831336 364.29385 C 154.776197 364.29385 153.049255 364.998018 151.611439 366.461122 C 150.15018 367.900753 149.40783 369.629875 149.40783 371.679785 C 149.40783 373.729695 150.142366 375.458818 151.611439 376.898449 C 153.049255 378.33808 154.807454 379.073544 156.831336 379.073544 C 158.847404 379.073544 160.63686 378.33808 162.08249 376.898449 Z M 162.08249 376.898449 " transform="matrix(0.49989,0,0,0.49926,0,0.138366)"/>
<path style="fill-rule:nonzero;fill:rgb(100%,100%,100%);fill-opacity:1;stroke-width:0.25;stroke-linecap:butt;stroke-linejoin:round;stroke:rgb(100%,100%,100%);stroke-opacity:1;stroke-miterlimit:4;" d="M 209.170962 363.300192 C 209.288175 363.417553 209.342874 363.542738 209.342874 363.722692 L 209.342874 379.636878 C 209.342874 379.809008 209.288175 379.926369 209.170962 380.059379 C 209.053748 380.192388 208.928721 380.231508 208.748994 380.231508 C 208.600524 380.231508 208.459868 380.17674 208.358283 380.059379 C 208.24107 379.942017 208.18637 379.816832 208.18637 379.636878 L 208.18637 375.388401 C 206.428171 378.611923 203.872922 380.223684 200.481552 380.223684 C 198.113844 380.223684 196.113405 379.386507 194.433348 377.712154 C 192.753292 376.053448 191.91717 374.019186 191.91717 371.679785 C 191.91717 369.340384 192.753292 367.306123 194.433348 365.647417 C 196.113405 363.973063 198.121659 363.14371 200.481552 363.14371 C 203.872922 363.14371 206.4438 364.747647 208.18637 367.97117 L 208.18637 363.722692 C 208.18637 363.550563 208.24107 363.433201 208.358283 363.300192 C 208.459868 363.182831 208.600524 363.128062 208.748994 363.128062 C 208.920907 363.128062 209.03812 363.182831 209.170962 363.300192 Z M 205.732706 376.898449 C 207.170522 375.458818 207.897244 373.698399 207.897244 371.679785 C 207.897244 369.661172 207.170522 367.900753 205.732706 366.461122 C 204.271447 365.02149 202.528877 364.29385 200.481552 364.29385 C 198.426413 364.29385 196.699471 365.02149 195.230398 366.461122 C 193.792582 367.900753 193.058046 369.661172 193.058046 371.679785 C 193.058046 373.698399 193.792582 375.458818 195.230398 376.898449 C 196.691657 378.33808 198.426413 379.073544 200.481552 379.073544 C 202.528877 379.073544 204.263633 378.33808 205.732706 376.898449 Z M 205.732706 376.898449 " transform="matrix(0.49989,0,0,0.49926,0,0.138366)"/>
<path style="fill-rule:nonzero;fill:rgb(100%,100%,100%);fill-opacity:1;stroke-width:0.25;stroke-linecap:butt;stroke-linejoin:round;stroke:rgb(100%,100%,100%);stroke-opacity:1;stroke-miterlimit:4;" d="M 222.650486 363.300192 C 222.767699 363.417553 222.822399 363.542738 222.822399 363.722692 C 222.822399 363.87135 222.767699 364.012183 222.650486 364.113897 C 222.548901 364.231258 222.408245 364.278202 222.259775 364.278202 C 220.228079 364.278202 218.501137 365.013666 217.063321 366.453297 C 215.617691 367.892929 214.906597 369.653348 214.906597 371.671961 L 214.906597 379.629054 C 214.906597 379.801184 214.859712 379.918545 214.742498 380.051555 C 214.617471 380.17674 214.500258 380.223684 214.320531 380.223684 C 214.17206 380.223684 214.031405 380.168916 213.92982 380.051555 C 213.812606 379.926369 213.757907 379.809008 213.757907 379.629054 L 213.757907 363.707044 C 213.757907 363.542738 213.812606 363.417553 213.92982 363.292368 C 214.031405 363.167182 214.17206 363.120238 214.320531 363.120238 C 214.492443 363.120238 214.609657 363.167182 214.742498 363.292368 C 214.867526 363.409729 214.906597 363.52709 214.906597 363.707044 L 214.906597 367.400012 C 216.67261 364.536397 219.110646 363.128062 222.259775 363.128062 C 222.408245 363.128062 222.548901 363.182831 222.650486 363.300192 Z M 222.650486 363.300192 " transform="matrix(0.49989,0,0,0.49926,0,0.138366)"/>
<path style="fill-rule:nonzero;fill:rgb(100%,100%,100%);fill-opacity:1;stroke-width:0.25;stroke-linecap:butt;stroke-linejoin:round;stroke:rgb(100%,100%,100%);stroke-opacity:1;stroke-miterlimit:4;" d="M 241.568705 377.712154 C 239.912091 379.386507 237.911652 380.223684 235.559572 380.223684 C 233.207493 380.223684 231.191425 379.386507 229.526997 377.712154 C 227.870383 376.053448 227.042076 374.019186 227.042076 371.679785 C 227.042076 369.340384 227.870383 367.306123 229.526997 365.631769 C 231.191425 363.973063 233.223122 363.120238 235.559572 363.120238 C 238.708702 363.120238 241.146738 364.559869 242.928379 367.423484 L 242.928379 351.446705 C 242.928379 351.2824 242.983079 351.157214 243.100292 351.032029 C 243.201877 350.906844 243.342533 350.859899 243.491003 350.859899 C 243.662916 350.859899 243.780129 350.906844 243.91297 351.032029 C 244.006741 351.14939 244.077069 351.266751 244.077069 351.446705 L 244.077069 371.687609 C 244.077069 374.02701 243.248762 376.061272 241.568705 377.719978 Z M 240.763841 376.898449 C 242.201657 375.458818 242.928379 373.698399 242.928379 371.679785 C 242.928379 369.661172 242.201657 367.900753 240.763841 366.461122 C 239.318211 364.998018 237.591269 364.29385 235.559572 364.29385 C 233.527876 364.29385 231.800934 364.998018 230.363118 366.461122 C 228.917488 367.900753 228.190766 369.629875 228.190766 371.679785 C 228.190766 373.729695 228.917488 375.458818 230.363118 376.898449 C 231.800934 378.33808 233.527876 379.073544 235.559572 379.073544 C 237.591269 379.073544 239.318211 378.33808 240.763841 376.898449 Z M 240.763841 376.898449 " transform="matrix(0.49989,0,0,0.49926,0,0.138366)"/>
<path style="fill-rule:nonzero;fill:rgb(100%,100%,100%);fill-opacity:1;stroke-width:0.25;stroke-linecap:butt;stroke-linejoin:round;stroke:rgb(100%,100%,100%);stroke-opacity:1;stroke-miterlimit:4;" d="M 265.316111 380.168916 C 265.167641 380.121971 265.050428 380.051555 264.933214 379.902897 C 264.77693 379.746415 264.690974 379.527341 264.612831 379.23785 L 261.072991 364.786768 C 261.018292 364.622462 261.049548 364.497277 261.119876 364.372091 C 261.190204 364.239082 261.323046 364.153017 261.463702 364.129545 C 261.612172 364.0826 261.729385 364.113897 261.846599 364.176489 C 262.002883 364.246906 262.073211 364.379915 262.120096 364.520749 L 265.589609 378.729284 L 268.809066 368.816171 C 268.957536 368.432791 269.231034 368.229364 269.590488 368.229364 C 269.949942 368.229364 270.223439 368.432791 270.371909 368.816171 L 273.591367 378.729284 L 277.060879 364.520749 C 277.107764 364.372091 277.178092 364.246906 277.326563 364.176489 C 277.45159 364.113897 277.568803 364.0826 277.717273 364.129545 C 277.873558 364.153017 277.990771 364.246906 278.061099 364.372091 C 278.131427 364.489453 278.162684 364.606814 278.107984 364.786768 L 274.568144 379.23785 C 274.497816 379.527341 274.396231 379.746415 274.247761 379.902897 C 274.130548 380.051555 274.013334 380.121971 273.85705 380.168916 C 273.739837 380.192388 273.638252 380.223684 273.591367 380.223684 C 273.536667 380.223684 273.442897 380.200212 273.317869 380.168916 C 273.169399 380.121971 273.052186 380.051555 272.927158 379.902897 C 272.778688 379.746415 272.692732 379.527341 272.606775 379.23785 L 269.582673 369.88807 L 266.550757 379.269146 C 266.480429 379.558637 266.347588 379.777712 266.230374 379.902897 C 266.113161 380.051555 265.988134 380.121971 265.839663 380.168916 C 265.72245 380.192388 265.620865 380.223684 265.566166 380.223684 C 265.519281 380.223684 265.417696 380.200212 265.300482 380.168916 Z M 265.316111 380.168916 " transform="matrix(0.49989,0,0,0.49926,0,0.138366)"/>
<path style="fill-rule:nonzero;fill:rgb(100%,100%,100%);fill-opacity:1;stroke-width:0.25;stroke-linecap:butt;stroke-linejoin:round;stroke:rgb(100%,100%,100%);stroke-opacity:1;stroke-miterlimit:4;" d="M 282.952799 353.246245 C 282.827771 353.097587 282.780886 352.878513 282.780886 352.659438 L 282.780886 351.657956 C 282.780886 351.423233 282.827771 351.219807 282.952799 351.047677 C 283.070012 350.883371 283.187225 350.812955 283.366952 350.812955 C 283.546679 350.812955 283.663893 350.883371 283.78892 351.047677 C 283.921762 351.219807 283.960833 351.423233 283.960833 351.657956 L 283.960833 352.659438 C 283.960833 352.878513 283.906133 353.097587 283.78892 353.246245 C 283.671707 353.418374 283.546679 353.488791 283.366952 353.488791 C 283.187225 353.488791 283.077826 353.418374 282.952799 353.246245 Z M 282.952799 379.981138 C 282.827771 379.809008 282.780886 379.613406 282.780886 379.370859 L 282.780886 356.031618 C 282.780886 355.812544 282.827771 355.609118 282.952799 355.436988 C 283.070012 355.272682 283.187225 355.202265 283.366952 355.202265 C 283.546679 355.202265 283.663893 355.272682 283.78892 355.436988 C 283.921762 355.609118 283.960833 355.812544 283.960833 356.031618 L 283.960833 379.370859 C 283.960833 379.613406 283.906133 379.809008 283.78892 379.981138 C 283.671707 380.153268 283.546679 380.223684 283.366952 380.223684 C 283.187225 380.223684 283.077826 380.153268 282.952799 379.981138 Z M 282.952799 379.981138 " transform="matrix(0.49989,0,0,0.49926,0,0.138366)"/>
<path style="fill-rule:nonzero;fill:rgb(100%,100%,100%);fill-opacity:1;stroke-width:0.25;stroke-linecap:butt;stroke-linejoin:round;stroke:rgb(100%,100%,100%);stroke-opacity:1;stroke-miterlimit:4;" d="M 305.387416 371.257285 C 305.512443 371.38247 305.559329 371.499831 305.559329 371.679785 C 305.559329 374.019186 304.731022 376.053448 303.066593 377.712154 C 301.409979 379.386507 299.40954 380.223684 297.057461 380.223684 C 294.713195 380.223684 292.736198 379.386507 291.079584 377.712154 C 289.42297 376.053448 288.586849 374.019186 288.586849 371.679785 L 288.586849 363.722692 C 288.586849 363.550563 288.641549 363.433201 288.758762 363.300192 C 288.860347 363.182831 289.001003 363.128062 289.149473 363.128062 C 289.321386 363.128062 289.438599 363.182831 289.571441 363.300192 C 289.696468 363.417553 289.743353 363.542738 289.743353 363.722692 L 289.743353 367.533021 L 296.190082 367.533021 C 296.338553 367.533021 296.479208 367.579966 296.580793 367.697327 C 296.698007 367.79904 296.752706 367.939873 296.752706 368.088531 C 296.752706 368.260661 296.698007 368.378022 296.580793 368.511031 C 296.479208 368.628393 296.338553 368.683161 296.190082 368.683161 L 289.743353 368.683161 L 289.743353 371.679785 C 289.743353 373.706223 290.446633 375.458818 291.892263 376.898449 C 293.330079 378.33808 295.057021 379.073544 297.073089 379.073544 C 299.081343 379.073544 300.831727 378.33808 302.269543 376.898449 C 303.707359 375.458818 304.418453 373.698399 304.418453 371.679785 C 304.418453 371.507655 304.473152 371.390294 304.590366 371.257285 C 304.707579 371.163396 304.832606 371.092979 305.012333 371.092979 C 305.160804 371.092979 305.301459 371.163396 305.403044 371.257285 Z M 305.387416 371.257285 " transform="matrix(0.49989,0,0,0.49926,0,0.138366)"/>
<path style="fill-rule:nonzero;fill:rgb(100%,100%,100%);fill-opacity:1;stroke-width:0.25;stroke-linecap:butt;stroke-linejoin:round;stroke:rgb(100%,100%,100%);stroke-opacity:1;stroke-miterlimit:4;" d="M 322.156726 367.306123 C 320.789238 365.968204 319.179509 365.279685 317.280654 365.279685 C 315.381799 365.279685 313.740814 365.96038 312.396769 367.306123 C 311.060537 368.683161 310.372886 370.310571 310.372886 372.219647 L 310.372886 379.691647 C 310.372886 379.840304 310.318187 379.957666 310.216602 380.082851 C 310.099389 380.17674 309.982175 380.231508 309.833705 380.231508 C 309.677421 380.231508 309.560208 380.17674 309.442995 380.082851 C 309.34141 379.957666 309.28671 379.840304 309.28671 379.691647 L 309.28671 353.246245 C 309.28671 353.097587 309.34141 352.980226 309.442995 352.862864 C 309.560208 352.761151 309.677421 352.706383 309.833705 352.706383 C 309.982175 352.706383 310.099389 352.761151 310.216602 352.862864 C 310.318187 352.980226 310.372886 353.097587 310.372886 353.246245 L 310.372886 368.22154 C 312.0295 365.530056 314.32688 364.223434 317.280654 364.223434 C 319.476449 364.223434 321.359675 364.998018 322.922519 366.562835 C 324.477548 368.119827 325.25897 369.997607 325.25897 372.219647 L 325.25897 379.691647 C 325.25897 379.840304 325.212084 379.957666 325.087057 380.082851 C 324.993286 380.17674 324.868259 380.231508 324.719789 380.231508 C 324.571319 380.231508 324.430663 380.17674 324.329078 380.082851 C 324.227493 379.957666 324.180608 379.840304 324.180608 379.691647 L 324.180608 372.219647 C 324.180608 370.318395 323.500771 368.683161 322.148911 367.306123 Z M 322.156726 367.306123 " transform="matrix(0.49989,0,0,0.49926,0,0.138366)"/>
<path style="fill:none;stroke-width:1.35;stroke-linecap:butt;stroke-linejoin:round;stroke:rgb(100%,100%,100%);stroke-opacity:1;stroke-miterlimit:4;" d="M 171.487277 364.510105 L 185.828822 364.510105 L 185.828822 378.849193 L 171.487277 378.849193 Z M 171.487277 364.510105 " transform="matrix(0.000000000000000031,0.49926,-0.49989,0.000000000000000031,275.109536,96.500492)"/>
</g>
</svg>
