<?xml version="1.0" standalone="no"?>
<!DOCTYPE svg PUBLIC "-//W3C//DTD SVG 20010904//EN"
 "http://www.w3.org/TR/2001/REC-SVG-20010904/DTD/svg10.dtd">
<svg version="1.0" xmlns="http://www.w3.org/2000/svg"
 width="608.000000pt" height="468.000000pt" viewBox="0 0 608.000000 468.000000"
 preserveAspectRatio="xMidYMid meet">

<g transform="translate(0.000000,468.000000) scale(0.100000,-0.100000)"
fill="#000000" stroke="none">
<path d="M0 2340 l0 -2340 3040 0 3040 0 0 2340 0 2340 -3040 0 -3040 0 0
-2340z m1200 742 l5 -303 45 46 c75 77 108 90 230 90 98 0 109 -2 159 -30 190
-105 231 -361 82 -514 -70 -72 -119 -94 -223 -99 -77 -4 -92 -2 -145 22 -62
29 -121 80 -155 134 -44 71 -48 114 -48 534 0 218 3 404 6 413 4 9 14 15 23
13 14 -3 17 -37 21 -306z m3598 -124 c2 -412 1 -429 -19 -482 -24 -65 -93
-142 -160 -177 -38 -21 -58 -24 -144 -24 -116 0 -156 16 -232 91 -68 68 -88
121 -88 229 0 78 4 97 28 147 54 109 146 169 274 176 108 6 167 -15 240 -83
l53 -51 0 287 c0 158 3 295 6 304 4 9 14 15 23 13 14 -3 16 -45 19 -430z
m-1545 -52 c55 -20 113 -63 147 -109 l29 -40 3 79 c3 73 5 79 26 82 l22 3 -2
-323 c-3 -315 -3 -323 -23 -323 -18 0 -20 8 -23 79 l-3 79 -30 -41 c-35 -48
-107 -98 -163 -113 -66 -18 -183 -7 -239 21 -60 30 -132 106 -160 168 -32 73
-30 191 6 265 36 72 122 152 185 171 60 18 176 19 225 2z m515 -60 l3 -68 33
39 c47 54 124 94 197 100 49 5 60 3 65 -12 9 -22 -7 -31 -69 -38 -81 -10 -161
-72 -201 -157 -18 -39 -22 -69 -26 -240 -5 -187 -6 -195 -25 -195 -20 0 -20 8
-23 310 -1 170 0 316 3 323 3 7 13 12 22 10 15 -3 19 -16 21 -72z m-1163 -251
l0 -290 -292 -3 -293 -2 0 295 0 295 293 -2 292 -3 0 -290z m1043 -657 c8 -8
12 -58 12 -160 l0 -148 235 0 235 0 0 149 c0 118 3 151 15 161 8 6 19 9 25 5
6 -4 10 -118 10 -336 0 -293 -2 -330 -16 -336 -28 -10 -34 18 -34 165 l0 142
-235 0 -234 0 -3 -152 c-3 -145 -4 -153 -23 -153 -20 0 -20 8 -23 325 -1 179
0 330 3 337 6 16 18 16 33 1z m-1000 -57 c-2 -18 -9 -26 -23 -26 -24 0 -33 38
-14 61 17 21 41 -2 37 -35z m222 -42 l0 -78 133 -3 c124 -3 132 -4 132 -23 0
-19 -8 -20 -130 -25 l-130 -5 -3 -68 c-5 -105 18 -168 82 -233 42 -41 66 -56
111 -70 169 -48 333 58 354 230 5 39 10 52 25 54 28 6 34 -13 24 -76 -16 -99
-94 -203 -186 -245 -36 -16 -67 -21 -132 -22 -73 0 -93 4 -141 28 -66 32 -132
99 -162 165 -20 42 -22 67 -25 240 -4 197 1 228 34 215 10 -4 14 -25 14 -84z
m-1051 28 c5 -12 32 -117 60 -232 29 -116 57 -228 62 -249 11 -40 11 -40 73
150 52 158 65 189 82 192 12 2 25 -3 31 -10 6 -7 36 -93 68 -190 31 -98 58
-178 60 -178 1 0 15 53 30 118 26 114 90 369 101 405 6 20 32 23 40 3 8 -20
-132 -576 -149 -593 -35 -35 -51 -10 -112 177 -33 99 -62 177 -66 173 -4 -5
-31 -84 -61 -177 -33 -104 -60 -173 -71 -180 -38 -24 -49 1 -119 285 -37 151
-68 283 -68 295 0 39 26 47 39 11z m829 -350 c2 -211 1 -238 -14 -244 -9 -3
-20 0 -25 8 -10 16 -12 438 -3 464 4 9 14 15 23 13 14 -3 16 -31 19 -241z"/>
<path d="M1386 2856 c-174 -65 -239 -282 -125 -425 56 -72 114 -103 204 -109
63 -4 80 -1 126 20 185 86 227 312 84 450 -22 21 -55 45 -75 55 -46 23 -163
28 -214 9z"/>
<path d="M4381 2859 c-20 -6 -61 -37 -96 -72 -51 -52 -64 -71 -75 -116 -27
-113 11 -228 98 -293 62 -46 110 -61 185 -56 144 10 245 111 255 255 7 106
-38 195 -129 253 -45 29 -61 34 -128 36 -42 2 -91 -1 -110 -7z"/>
<path d="M3025 2846 c-93 -43 -165 -153 -165 -251 0 -98 68 -202 162 -249 137
-68 311 -2 377 144 29 63 28 150 -3 215 -28 61 -109 137 -164 153 -65 20 -150
15 -207 -12z"/>
<path d="M2060 2595 l0 -245 250 0 250 0 0 245 0 245 -250 0 -250 0 0 -245z"/>
</g>
</svg>
