<?xml version="1.0" encoding="UTF-8"?>
<svg id="_레이어_2" data-name="레이어 2" xmlns="http://www.w3.org/2000/svg" 
width="220" height="50"
viewBox="0 0 180 50">
  <defs>
    <style>
         .cls-1 {
        fill: #fff;
        stroke-width: 2px;
      }

      .cls-1, .cls-2 {
        stroke: white;
        stroke-linejoin: round;
        stroke-dasharray: 160;
        stroke-dashoffset: 160;
        animation: ani 5s linear infinite;
        filter:url(#f1)
      }
@keyframes ani {
  0% {
    stroke-dashoffset: 160; 
  }
  50% {
    stroke-dashoffset: 0;  
  }
  100% {
    stroke-dashoffset: -160;
  }
}


      .cls-2 {
        fill: none;
        stroke:white;
        stroke-width: 2px;
      }
    </style>
       <filter id="f1" x="0" y="0" width="200%" height="200%">
       <feOffset result="offOut" in="SourceGraphic" dx="1" dy="1" />
       <feColorMatrix result="matrixOut" in="offOut" type="matrix" values="0.8 0 0 0 0 0 0.5 0 0 0 0 0 0.8 0 0 0 0 0 1 0" />
<feGaussianBlur result="blurOut" in="matrixOut" stdDeviation="2" />
<feBlend in="SourceGraphic" in2="blurOut" mode="normal" />
</filter>
  </defs>
  <g id="3" data-name=" 레이어 3">
    <path class="cls-1" d="M14.76,14.93c1.68,1.68,2.51,3.69,2.51,6.05s-.83,4.37-2.51,6.03c-1.68,1.68-3.71,2.51-6.08,2.51s-4.37-.83-6.05-2.51C.96,25.35,.12,23.32,.12,20.98V.74c0-.17,.05-.29,.17-.42s.24-.17,.42-.17c.15,0,.29,.05,.39,.17,.12,.12,.17,.24,.17,.42v15.97c1.78-2.86,4.27-4.3,7.42-4.3,2.37,0,4.39,.85,6.08,2.51h0Zm-.83,11.29c1.46-1.44,2.2-3.2,2.2-5.22s-.73-3.78-2.2-5.22c-1.44-1.46-3.2-2.17-5.25-2.17s-3.78,.71-5.22,2.17c-1.46,1.44-2.2,3.17-2.2,5.22s.73,3.78,2.2,5.22c1.44,1.44,3.2,2.17,5.22,2.17s3.81-.73,5.25-2.17Z"/>
    <path class="cls-1" d="M61.02,12.61c.12,.12,.17,.24,.17,.42v15.92c0,.17-.05,.29-.17,.42s-.24,.17-.42,.17c-.15,0-.29-.05-.39-.17-.12-.12-.17-.24-.17-.42v-4.25c-1.76,3.22-4.32,4.83-7.71,4.83-2.37,0-4.37-.83-6.05-2.51-1.68-1.66-2.51-3.69-2.51-6.03s.83-4.37,2.51-6.03c1.68-1.68,3.69-2.51,6.05-2.51,3.39,0,5.96,1.61,7.71,4.83v-4.25c0-.17,.05-.29,.17-.42,.1-.12,.24-.17,.39-.17,.17,0,.29,.05,.42,.17h0Zm-3.44,13.6c1.44-1.44,2.17-3.2,2.17-5.22s-.73-3.78-2.17-5.22c-1.46-1.44-3.2-2.17-5.25-2.17s-3.78,.73-5.25,2.17c-1.44,1.44-2.17,3.2-2.17,5.22s.73,3.78,2.17,5.22c1.46,1.44,3.2,2.17,5.25,2.17s3.78-.73,5.25-2.17Z"/>
    <path class="cls-1" d="M74.5,12.61c.12,.12,.17,.24,.17,.42,0,.15-.05,.29-.17,.39-.1,.12-.24,.17-.39,.17-2.03,0-3.76,.73-5.2,2.17s-2.15,3.2-2.15,5.22v7.96c0,.17-.05,.29-.17,.42s-.24,.17-.42,.17c-.15,0-.29-.05-.39-.17-.12-.12-.17-.24-.17-.42V13.02c0-.17,.05-.29,.17-.42,.1-.12,.24-.17,.39-.17,.17,0,.29,.05,.42,.17s.17,.24,.17,.42v3.69c1.76-2.86,4.2-4.27,7.35-4.27,.15,0,.29,.05,.39,.17h0Z"/>
    <path class="cls-1" d="M93.43,27.02c-1.66,1.68-3.66,2.51-6.01,2.51s-4.37-.83-6.03-2.51c-1.66-1.66-2.49-3.69-2.49-6.03s.83-4.37,2.49-6.05c1.66-1.66,3.69-2.51,6.03-2.51,3.15,0,5.59,1.44,7.37,4.3V.76c0-.17,.05-.29,.17-.42,.1-.12,.24-.17,.39-.17,.17,0,.29,.05,.42,.17,.1,.12,.17,.24,.17,.42V21c0,2.34-.83,4.37-2.51,6.03h0Zm-.81-.82c1.44-1.44,2.17-3.2,2.17-5.22s-.73-3.78-2.17-5.22c-1.44-1.46-3.17-2.17-5.2-2.17s-3.76,.71-5.2,2.17c-1.44,1.44-2.17,3.17-2.17,5.22s.73,3.78,2.17,5.22,3.17,2.17,5.2,2.17,3.76-.73,5.2-2.17Z"/>
    <path class="cls-1" d="M117.18,29.48c-.15-.05-.27-.12-.39-.27-.15-.15-.24-.37-.32-.66l-3.54-14.45c-.05-.17-.02-.29,.05-.42s.2-.22,.34-.24c.15-.05,.27-.02,.39,.05,.15,.07,.22,.2,.27,.34l3.47,14.21,3.22-9.91c.15-.39,.42-.59,.78-.59s.63,.2,.78,.59l3.22,9.91,3.47-14.21c.05-.15,.12-.27,.27-.34,.12-.07,.24-.1,.39-.05,.15,.02,.27,.12,.34,.24s.1,.24,.05,.42l-3.54,14.45c-.07,.29-.17,.51-.32,.66-.12,.15-.24,.22-.39,.27-.12,.02-.22,.05-.27,.05s-.15-.02-.27-.05c-.15-.05-.27-.12-.39-.27-.15-.15-.24-.37-.32-.66l-3.03-9.35-3.03,9.38c-.07,.29-.2,.51-.32,.63-.12,.15-.24,.22-.39,.27-.12,.02-.22,.05-.27,.05s-.15-.02-.27-.05h.02Z"/>
    <path class="cls-1" d="M134.81,2.56c-.12-.15-.17-.37-.17-.59V.97c0-.24,.05-.44,.17-.61s.24-.24,.42-.24,.29,.07,.42,.24,.17,.37,.17,.61V1.97c0,.22-.05,.44-.17,.59-.12,.17-.24,.24-.42,.24s-.29-.07-.42-.24Zm0,26.73c-.12-.17-.17-.37-.17-.61V5.35c0-.22,.05-.42,.17-.59s.24-.24,.42-.24,.29,.07,.42,.24,.17,.37,.17,.59V28.68c0,.24-.05,.44-.17,.61s-.24,.24-.42,.24-.29-.07-.42-.24Z"/>
    <path class="cls-1" d="M157.25,20.57c.12,.12,.17,.24,.17,.42,0,2.34-.83,4.37-2.49,6.03-1.66,1.68-3.66,2.51-6.01,2.51s-4.32-.83-5.98-2.51c-1.66-1.66-2.49-3.69-2.49-6.03v-7.96c0-.17,.05-.29,.17-.42,.1-.12,.24-.17,.39-.17,.17,0,.29,.05,.42,.17s.17,.24,.17,.42v3.81h6.45c.15,0,.29,.05,.39,.17,.12,.1,.17,.24,.17,.39,0,.17-.05,.29-.17,.42-.1,.12-.24,.17-.39,.17h-6.45v3c0,2.03,.71,3.78,2.15,5.22s3.17,2.17,5.18,2.17,3.76-.73,5.2-2.17,2.15-3.2,2.15-5.22c0-.17,.05-.29,.17-.42,.12-.1,.24-.17,.42-.17,.15,0,.29,.07,.39,.17h-.01Z"/>
    <path class="cls-1" d="M174.01,16.62c-1.37-1.34-2.98-2.03-4.88-2.03s-3.54,.68-4.88,2.03c-1.34,1.37-2.03,3-2.03,4.91v7.47c0,.15-.05,.27-.15,.39-.12,.1-.24,.15-.39,.15s-.27-.05-.39-.15c-.1-.12-.15-.24-.15-.39V2.56c0-.15,.05-.27,.15-.39,.12-.1,.24-.15,.39-.15s.27,.05,.39,.15c.1,.12,.15,.24,.15,.39v14.97c1.66-2.69,3.96-4,6.91-4,2.2,0,4.08,.78,5.64,2.34s2.34,3.44,2.34,5.66v7.47c0,.15-.05,.27-.17,.39-.1,.1-.22,.15-.37,.15s-.29-.05-.39-.15c-.1-.12-.15-.24-.15-.39v-7.47c0-1.9-.68-3.54-2.03-4.91h.01Z"/>
    <rect 
    id="123"
    class="cls-2" x="23.35" y="13.81" width="14.34" height="14.34"/>

  </g>
</svg>