<?xml version="1.0" encoding="UTF-8"?>
<svg id="_레이어_1" data-name="레이어 1" xmlns="http://www.w3.org/2000/svg" viewBox="0 0 430 450">
  <defs>
    <style>
      .cls-1 {
        stroke: #231815;
        stroke-linejoin: round;
        stroke-width: 1.15px;
      }
    </style>
  </defs>
  <path class="cls-1" d="M292.41,154.11c-2.69,0-5.28,.42-7.72,1.18,.51-2.03,.82-4.14,.82-6.32,0-14.18-11.5-25.68-25.68-25.68-8.09,0-15.3,3.75-20.01,9.6-2.89-11.02-12.89-19.16-24.82-19.16s-21.93,8.14-24.82,19.16c-4.71-5.85-11.92-9.6-20.01-9.6-14.18,0-25.68,11.5-25.68,25.68,0,2.19,.3,4.3,.82,6.32-2.44-.77-5.03-1.18-7.72-1.18-14.18,0-25.68,11.5-25.68,25.68s11.5,25.68,25.68,25.68c.08,0,.16-.01,.24-.01v-14.86c0-22.99,18.64-41.63,41.63-41.63h71.09c22.99,0,41.63,18.64,41.63,41.63v14.86c.08,0,.16,.01,.24,.01,14.18,0,25.68-11.5,25.68-25.68s-11.5-25.68-25.68-25.68Z"/>
</svg>