<?xml version="1.0" encoding="UTF-8"?>
<svg id="_레이어_1" data-name="레이어 1" xmlns="http://www.w3.org/2000/svg" viewBox="0 0 430 450">
  <defs>
    <style>
      .cls-1 {
        fill: #231815;
        stroke: #231815;
        stroke-linejoin: round;
        stroke-width: 1.15px;
      }
    </style>
  </defs>
  <path class="cls-1" d="M137.86,132.44c-3.37,0-6.59,.62-9.59,1.69,.05-.56,.09-1.12,.09-1.69,0-10.45-8.47-18.93-18.93-18.93-10.45,0-18.93,8.47-18.93,18.93s8.47,18.93,18.93,18.93c.57,0,1.13-.04,1.69-.09-1.08,3-1.69,6.22-1.69,9.59,0,15.7,12.73,28.43,28.43,28.43s28.43-12.73,28.43-28.43-12.73-28.43-28.43-28.43Z"/>
  <path class="cls-1" d="M292.14,132.44c3.37,0,6.59,.62,9.59,1.69-.05-.56-.09-1.12-.09-1.69,0-10.45,8.47-18.93,18.93-18.93,10.45,0,18.93,8.47,18.93,18.93s-8.47,18.93-18.93,18.93c-.57,0-1.13-.04-1.69-.09,1.08,3,1.69,6.22,1.69,9.59,0,15.7-12.73,28.43-28.43,28.43s-28.43-12.73-28.43-28.43,12.73-28.43,28.43-28.43Z"/>
</svg>