<?xml version="1.0" encoding="UTF-8"?>
<svg id="_레이어_1" data-name="레이어 1" xmlns="http://www.w3.org/2000/svg" viewBox="0 0 430 450">
  <defs>
    <style>
      .cls-1 {
        stroke: #231815;
        stroke-linejoin: round;
        stroke-width: 1.15px;
      }
    </style>
  </defs>
  <path class="cls-1" d="M333.04,198.45l-26.72-50.87c-12.18-16.9-39.01,1.87-39.01,1.87l.9,2.61c13.12,6.72,22.11,20.35,22.11,36.1v27.97c11.2,18.61,29.81,18.21,40.44,7.04,6.21-6.51,6.46-16.75,2.28-24.72Z"/>
  <path class="cls-1" d="M139.86,188.15c0-15.67,8.9-29.24,21.9-36l.93-2.71s-26.82-18.77-39.01-1.87l-26.72,50.87c-4.18,7.97-3.93,18.2,2.28,24.72,10.64,11.16,29.24,11.57,40.44-7.04l.17-.51v-27.46Z"/>
</svg>