<?xml version="1.0" encoding="UTF-8"?>
<svg id="_레이어_1" data-name="레이어 1" xmlns="http://www.w3.org/2000/svg" viewBox="0 0 430 450">
  <defs>
    <style>
      .cls-1 {
        fill: #231815;
        stroke: #231815;
        stroke-linejoin: round;
        stroke-width: 1.15px;
      }
    </style>
  </defs>
  <path class="cls-1" d="M172.04,151.39c0,8.48,6.87,15.35,15.35,15.35,6.82,0,12.77-4.48,14.67-10.63,2,6.15,7.71,10.63,14.53,10.63,6.82,0,12.77-4.48,14.67-10.63,2,6.15,7.71,10.63,14.53,10.63,8.48,0,15.73-6.88,15.35-15.35-.09-1.89-.5-3.7-1.16-5.39h.02s-.04-.09-.11-.23c-.08-.19-.16-.38-.24-.56-1.35-3.24-5.65-15.39,5.35-15.59,0,0-24.51-9.71-33.49,16.16h.01c-.17,.44-.27,.91-.4,1.36-.12-.38-.2-.77-.34-1.13h.02s-.04-.09-.11-.23c-.08-.19-.16-.38-.24-.56-1.35-3.24-5.65-15.39,5.35-15.59,0,0-24.51-9.71-33.49,16.16h.01c-.17,.44-.27,.91-.4,1.36-.12-.38-.2-.77-.34-1.13h.02s-.04-.09-.11-.23c-.08-.19-.16-.38-.24-.56-1.35-3.24-5.65-15.39,5.35-15.59,0,0-24.51-9.71-33.49,16.16h.01c-.69,1.74-1.08,3.63-1.08,5.62Z"/>
</svg>