<?xml version="1.0" encoding="UTF-8"?>
<svg id="_레이어_1" data-name="레이어 1" xmlns="http://www.w3.org/2000/svg" viewBox="0 0 430 450">
  <defs>
    <style>
      .cls-1 {
        fill: #040000;
        stroke: #231815;
        stroke-linejoin: round;
        stroke-width: 1.15px;
      }
    </style>
  </defs>
  <path class="cls-1" d="M140.22,189.62c0-13.67,6.82-25.72,17.22-33.01-4.55-5.82-11.62-9.57-19.58-9.57-13.73,0-25.49,11.15-24.86,24.86,.26,5.68,2.27,10.94,5.5,15.16-7.74,4.26-13.03,12.38-12.61,21.69,.62,13.58,11.13,24.86,24.86,24.86,3.35,0,6.55-.67,9.47-1.88v-42.13Z"/>
  <path class="cls-1" d="M311.08,187.86c3.62-4.32,5.81-9.88,5.81-15.96,0-13.73-11.13-24.86-24.86-24.86-7.91,0-15.14,3.71-19.75,9.46,10.49,7.28,17.37,19.39,17.37,33.12v42.98c2.9,1.24,6.1,1.94,9.49,1.94,13.73,0,24.86-11.13,24.86-24.86,0-9.4-5.22-17.58-12.92-21.81Z"/>
</svg>